<?xml version="1.0" encoding="utf-8"?>
<!-- Generator: Adobe Illustrator 26.3.1, SVG Export Plug-In . SVG Version: 6.00 Build 0)  -->
<svg version="1.1" id="Layer_1" xmlns="http://www.w3.org/2000/svg" xmlns:xlink="http://www.w3.org/1999/xlink" x="0px" y="0px"
	 viewBox="0 0 50 50" style="enable-background:new 0 0 50 50;" xml:space="preserve">
<g>
	<g>
		<path d="M22.7,25.7c0-0.8-0.4-1.6-1-2.1c0.6-0.5,1-1.2,1-2.1c0-1.5-1.2-2.7-2.7-2.7c-1.3,0-2.4,0.9-2.6,2.2
			c-0.1,0.3,0.2,0.7,0.5,0.7c0.3,0.1,0.7-0.2,0.7-0.5c0.1-0.7,0.7-1.2,1.4-1.2c0.8,0,1.4,0.6,1.4,1.4c0,0.8-0.6,1.4-1.4,1.4
			c-0.3,0-0.6,0.3-0.6,0.6s0.3,0.6,0.6,0.6c0.8,0,1.4,0.6,1.4,1.4c0,0.8-0.6,1.4-1.4,1.4c-0.7,0-1.3-0.5-1.4-1.2c0-0.1,0-0.1,0-0.2
			c0-0.3-0.3-0.6-0.6-0.6c-0.3,0-0.6,0.3-0.6,0.6c0,0.1,0,0.2,0,0.4c0.2,1.3,1.3,2.3,2.6,2.3C21.5,28.3,22.7,27.2,22.7,25.7
			L22.7,25.7z"/>
		<path d="M29.9,25.5v-3.7c0-1.6-1.3-2.9-2.9-2.9c-1.6,0-2.9,1.3-2.9,2.9v3.7c0,1.6,1.3,2.9,2.9,2.9C28.6,28.4,29.9,27.1,29.9,25.5z
			 M28.6,25.5c0,0.9-0.8,1.7-1.7,1.7c-0.9,0-1.7-0.8-1.7-1.7v-3.7c0-0.9,0.8-1.7,1.7-1.7c0.9,0,1.7,0.8,1.7,1.7V25.5z"/>
		<path d="M43.3,12c-0.3-1.5-1.6-2.7-3.2-2.7h0V8.6c0-1.1-0.9-1.9-1.9-1.9c-1.1,0-1.9,0.9-1.9,1.9v0.7h-23c-0.3,0-0.6,0.3-0.6,0.6
			s0.3,0.6,0.6,0.6h23v0.7c0,1.1,0.9,1.9,1.9,1.9c1.1,0,1.9-0.9,1.9-1.9v-0.7h0c1.1,0,2,0.9,2,2v2h-2.7c-0.3,0-0.6,0.3-0.6,0.6
			s0.3,0.6,0.6,0.6h2.7v17.1h-3.3c-1.8,0-3.2,1.5-3.2,3.2v3.3H7.3c-1.1,0-2-0.9-2-2V15.8h31.5c0.3,0,0.6-0.3,0.6-0.6
			s-0.3-0.6-0.6-0.6H5.3v-2c0-1.1,0.9-2,2-2h0v0.7c0,1.1,0.9,1.9,1.9,1.9s1.9-0.9,1.9-1.9V8.6c0-1.1-0.9-1.9-1.9-1.9
			S7.3,7.5,7.3,8.6v0.7h0c-1.8,0-3.2,1.5-3.2,3.2v24.9c0,1.6,1.2,2.9,2.7,3.2c0.3,1.5,1.6,2.7,3.2,2.7h32.8c1.8,0,3.2-1.5,3.2-3.2
			V15.2C45.9,13.6,44.8,12.2,43.3,12L43.3,12z M38.8,11.2c0,0.4-0.3,0.7-0.7,0.7s-0.7-0.3-0.7-0.7V8.6c0-0.4,0.3-0.7,0.7-0.7
			s0.7,0.3,0.7,0.7V11.2z M8.6,8.6c0-0.4,0.3-0.7,0.7-0.7S10,8.2,10,8.6v2.6c0,0.4-0.3,0.7-0.7,0.7s-0.7-0.3-0.7-0.7V8.6z
			 M36.8,36.1c0-1.1,0.9-2,2-2h2.5l-4.5,4.5L36.8,36.1L36.8,36.1z M44.7,40.1c0,1.1-0.9,2-2,2H9.9c-0.9,0-1.7-0.6-1.9-1.4h28.1
			c0.2,0,0.3-0.1,0.4-0.2l6.6-6.6c0.1-0.1,0.2-0.3,0.2-0.4h0V13.3c0.8,0.3,1.4,1,1.4,1.9V40.1z"/>
	</g>
	<g>
		<path d="M10.7,34.4l-0.2-0.5H8.8l-0.2,0.5c-0.1,0.2-0.1,0.4-0.2,0.4C8.4,34.9,8.3,35,8.1,35c-0.1,0-0.2,0-0.3-0.1
			c-0.1-0.1-0.1-0.2-0.1-0.3c0-0.1,0-0.1,0-0.2c0-0.1,0.1-0.1,0.1-0.3l1.1-2.7c0-0.1,0.1-0.2,0.1-0.3s0.1-0.2,0.1-0.3
			c0-0.1,0.1-0.1,0.2-0.2c0.1,0,0.2-0.1,0.3-0.1c0.1,0,0.2,0,0.3,0.1c0.1,0,0.1,0.1,0.2,0.2c0,0.1,0.1,0.1,0.1,0.2
			c0,0.1,0.1,0.2,0.1,0.3l1.1,2.7c0.1,0.2,0.1,0.4,0.1,0.5c0,0.1,0,0.2-0.1,0.3c-0.1,0.1-0.2,0.1-0.3,0.1c-0.1,0-0.1,0-0.2,0
			c0,0-0.1-0.1-0.1-0.1c0,0-0.1-0.1-0.1-0.2C10.8,34.6,10.8,34.5,10.7,34.4z M9,33.2h1.3l-0.6-1.7L9,33.2z"/>
		<path d="M13.1,31.1v3.1h1.7c0.1,0,0.2,0,0.3,0.1c0.1,0.1,0.1,0.2,0.1,0.3c0,0.1,0,0.2-0.1,0.3c-0.1,0.1-0.2,0.1-0.3,0.1h-2.1
			c-0.2,0-0.3,0-0.4-0.1c-0.1-0.1-0.1-0.2-0.1-0.4v-3.3c0-0.2,0-0.3,0.1-0.4s0.2-0.1,0.3-0.1c0.1,0,0.2,0,0.3,0.1
			C13.1,30.8,13.1,30.9,13.1,31.1z"/>
		<path d="M16.7,31.1v3.1h1.7c0.1,0,0.2,0,0.3,0.1c0.1,0.1,0.1,0.2,0.1,0.3c0,0.1,0,0.2-0.1,0.3c-0.1,0.1-0.2,0.1-0.3,0.1h-2.1
			c-0.2,0-0.3,0-0.4-0.1c-0.1-0.1-0.1-0.2-0.1-0.4v-3.3c0-0.2,0-0.3,0.1-0.4c0.1-0.1,0.2-0.1,0.3-0.1c0.1,0,0.2,0,0.3,0.1
			C16.7,30.8,16.7,30.9,16.7,31.1z"/>
		<path d="M21.4,30.7h1.1c0.3,0,0.5,0,0.7,0.1c0.2,0.1,0.4,0.2,0.6,0.3c0.4,0.4,0.7,1,0.7,1.7c0,0.3,0,0.5-0.1,0.7
			c0,0.2-0.1,0.4-0.2,0.6c-0.1,0.2-0.2,0.3-0.4,0.5c-0.1,0.1-0.2,0.2-0.4,0.2c-0.1,0.1-0.3,0.1-0.4,0.1c-0.2,0-0.3,0-0.5,0h-1.1
			c-0.2,0-0.3,0-0.4-0.1s-0.1-0.1-0.2-0.2c0-0.1,0-0.2,0-0.3v-3.1c0-0.2,0-0.3,0.1-0.4C21.1,30.7,21.3,30.7,21.4,30.7z M21.8,31.3
			v2.9h0.6c0.1,0,0.3,0,0.3,0c0.1,0,0.2,0,0.3-0.1c0.1,0,0.2-0.1,0.2-0.1c0.3-0.2,0.4-0.7,0.4-1.3c0-0.4-0.1-0.7-0.2-0.9
			c-0.1-0.2-0.3-0.3-0.5-0.4c-0.2-0.1-0.4-0.1-0.7-0.1H21.8z"/>
		<path d="M27.8,34.4l-0.2-0.5h-1.7l-0.2,0.5c-0.1,0.2-0.1,0.4-0.2,0.4c-0.1,0.1-0.1,0.1-0.3,0.1c-0.1,0-0.2,0-0.3-0.1
			c-0.1-0.1-0.1-0.2-0.1-0.3c0-0.1,0-0.1,0-0.2c0-0.1,0.1-0.1,0.1-0.3l1.1-2.7c0-0.1,0.1-0.2,0.1-0.3c0-0.1,0.1-0.2,0.1-0.3
			s0.1-0.1,0.2-0.2c0.1,0,0.2-0.1,0.3-0.1c0.1,0,0.2,0,0.3,0.1c0.1,0,0.1,0.1,0.2,0.2s0.1,0.1,0.1,0.2c0,0.1,0.1,0.2,0.1,0.3
			l1.1,2.7c0.1,0.2,0.1,0.4,0.1,0.5c0,0.1,0,0.2-0.1,0.3c-0.1,0.1-0.2,0.1-0.3,0.1c-0.1,0-0.1,0-0.2,0c0,0-0.1-0.1-0.1-0.1
			c0,0-0.1-0.1-0.1-0.2C27.8,34.6,27.8,34.5,27.8,34.4z M26.1,33.2h1.3l-0.6-1.7L26.1,33.2z"/>
		<path d="M29.9,34.4v-1.3l-1-1.6c-0.1-0.1-0.2-0.3-0.2-0.3c0-0.1-0.1-0.2-0.1-0.2c0-0.1,0-0.2,0.1-0.3c0.1-0.1,0.2-0.1,0.3-0.1
			c0.1,0,0.2,0,0.3,0.1c0.1,0.1,0.2,0.2,0.3,0.4l0.8,1.3l0.8-1.3c0-0.1,0.1-0.1,0.1-0.2c0-0.1,0.1-0.1,0.1-0.2c0,0,0.1-0.1,0.1-0.1
			c0,0,0.1,0,0.2,0c0.1,0,0.2,0,0.3,0.1c0.1,0.1,0.1,0.2,0.1,0.2c0,0.1,0,0.2-0.1,0.2c0,0.1-0.1,0.2-0.2,0.3l-1.1,1.6v1.3
			c0,0.2,0,0.3-0.1,0.4c-0.1,0.1-0.2,0.1-0.3,0.1c-0.1,0-0.2,0-0.3-0.1C29.9,34.7,29.9,34.6,29.9,34.4z"/>
		<path d="M35.7,33.6c0,0.3-0.1,0.5-0.2,0.7c-0.1,0.2-0.3,0.4-0.6,0.5C34.7,34.9,34.4,35,34,35c-0.4,0-0.8-0.1-1-0.2
			c-0.2-0.1-0.3-0.3-0.5-0.5c-0.1-0.2-0.2-0.4-0.2-0.6c0-0.1,0-0.2,0.1-0.3c0.1-0.1,0.2-0.1,0.3-0.1c0.1,0,0.2,0,0.2,0.1
			c0.1,0.1,0.1,0.1,0.2,0.3c0.1,0.1,0.1,0.2,0.2,0.3c0.1,0.1,0.2,0.2,0.3,0.2c0.1,0.1,0.3,0.1,0.4,0.1c0.3,0,0.5-0.1,0.6-0.2
			c0.2-0.1,0.2-0.3,0.2-0.4c0-0.1,0-0.3-0.1-0.3c-0.1-0.1-0.2-0.2-0.3-0.2c-0.1,0-0.3-0.1-0.5-0.1c-0.3-0.1-0.6-0.2-0.8-0.2
			c-0.2-0.1-0.4-0.2-0.5-0.4c-0.1-0.2-0.2-0.4-0.2-0.6c0-0.2,0.1-0.4,0.2-0.6c0.1-0.2,0.3-0.3,0.6-0.4c0.2-0.1,0.5-0.1,0.8-0.1
			c0.3,0,0.5,0,0.7,0.1c0.2,0.1,0.3,0.2,0.5,0.3c0.1,0.1,0.2,0.2,0.3,0.3c0.1,0.1,0.1,0.2,0.1,0.3c0,0.1,0,0.2-0.1,0.3
			C35.3,32,35.2,32,35.1,32c-0.1,0-0.2,0-0.2-0.1c-0.1,0-0.1-0.1-0.2-0.2c-0.1-0.2-0.2-0.3-0.3-0.4c-0.1-0.1-0.3-0.1-0.5-0.1
			c-0.2,0-0.4,0-0.5,0.1c-0.1,0.1-0.2,0.2-0.2,0.4c0,0.1,0,0.2,0.1,0.2c0,0.1,0.1,0.1,0.2,0.2c0.1,0,0.2,0.1,0.2,0.1
			c0.1,0,0.2,0.1,0.4,0.1c0.2,0.1,0.5,0.1,0.6,0.2c0.2,0.1,0.4,0.1,0.5,0.2c0.1,0.1,0.2,0.2,0.3,0.4C35.7,33.2,35.7,33.4,35.7,33.6z
			"/>
	</g>
</g>
</svg>
