<?xml version="1.0" encoding="utf-8"?>
<!-- Generator: Adobe Illustrator 26.3.1, SVG Export Plug-In . SVG Version: 6.00 Build 0)  -->
<svg version="1.1" id="Layer_1" xmlns="http://www.w3.org/2000/svg" xmlns:xlink="http://www.w3.org/1999/xlink" x="0px" y="0px"
	 viewBox="0 0 50 50" style="enable-background:new 0 0 50 50;" xml:space="preserve">
<g>
	<path d="M44.2,10.3H14.1h-0.9H5.8c-1.8,0-3.3,1.5-3.3,3.3v22.9c0,1.8,1.5,3.3,3.3,3.3h38.4c1.8,0,3.3-1.5,3.3-3.3v-9.3v-1.5v-12
		C47.5,11.8,46,10.3,44.2,10.3z M46.2,36.4c0,1.1-0.9,2-2,2H5.8c-1.1,0-2-0.9-2-2V13.6c0-1.1,0.9-2,2-2h7.4h0.9h30.1
		c1.1,0,2,0.9,2,2v12v1.5V36.4z"/>
	<path d="M10.2,27c-0.6,0-1.1,0.5-1.1,1.1v1.8c0,0.6,0.5,1.1,1.1,1.1H13c0.6,0,1.1-0.5,1.1-1.1v-1.8c0-0.6-0.5-1.1-1.1-1.1H10.2z
		 M12.8,29.7h-2.4v-1.3h2.4V29.7z"/>
	<path d="M17.3,31h2.8c0.6,0,1.1-0.5,1.1-1.1v-1.8c0-0.6-0.5-1.1-1.1-1.1h-2.8c-0.6,0-1.1,0.5-1.1,1.1v1.8
		C16.2,30.5,16.7,31,17.3,31z M17.5,28.3h2.4v1.3h-2.4V28.3z"/>
	<path d="M16.1,25.4c0.6,0,1.1-0.5,1.1-1.1v-4.1c0-0.6-0.5-1.1-1.1-1.1h-1.8c-0.6,0-1.1,0.5-1.1,1.1v4.1c0,0.6,0.5,1.1,1.1,1.1H16.1
		z M14.5,20.3h1.3V24h-1.3V20.3z"/>
	<path d="M29.9,27c-0.6,0-1.1,0.5-1.1,1.1v1.8c0,0.6,0.5,1.1,1.1,1.1h2.8c0.6,0,1.1-0.5,1.1-1.1v-1.8c0-0.6-0.5-1.1-1.1-1.1H29.9z
		 M32.5,29.7h-2.4v-1.3h2.4V29.7z"/>
	<path d="M35.9,28.1v1.8c0,0.6,0.5,1.1,1.1,1.1h2.8c0.6,0,1.1-0.5,1.1-1.1v-1.8c0-0.6-0.5-1.1-1.1-1.1H37
		C36.4,27,35.9,27.5,35.9,28.1z M37.2,28.3h2.4v1.3h-2.4V28.3z"/>
	<path d="M34,19c-0.6,0-1.1,0.5-1.1,1.1v4.1c0,0.6,0.5,1.1,1.1,1.1h1.8c0.6,0,1.1-0.5,1.1-1.1v-4.1c0-0.6-0.5-1.1-1.1-1.1H34z
		 M35.5,24h-1.3v-3.7h1.3V24z"/>
	<path d="M21.9,15.5H8.4c-0.8,0-1.5,0.7-1.5,1.5V33c0,0.8,0.7,1.5,1.5,1.5h13.5c0.8,0,1.5-0.7,1.5-1.5v-2.2c0-0.4-0.3-0.7-0.7-0.7
		s-0.7,0.3-0.7,0.7V33c0,0.1-0.1,0.2-0.2,0.2H8.4c-0.1,0-0.2-0.1-0.2-0.2V17c0-0.1,0.1-0.2,0.2-0.2h13.5c0.1,0,0.2,0.1,0.2,0.2v10.6
		c0,0.4,0.3,0.7,0.7,0.7s0.7-0.3,0.7-0.7V17C23.5,16.2,22.8,15.5,21.9,15.5z"/>
	<path d="M41.6,15.5h-3.2c-0.4,0-0.7,0.3-0.7,0.7c0,0.4,0.3,0.7,0.7,0.7h3.2c0.1,0,0.2,0.1,0.2,0.2V33c0,0.1-0.1,0.2-0.2,0.2H28.1
		c-0.1,0-0.2-0.1-0.2-0.2V17c0-0.1,0.1-0.2,0.2-0.2h7.2c0.4,0,0.7-0.3,0.7-0.7c0-0.4-0.3-0.7-0.7-0.7h-7.2c-0.8,0-1.5,0.7-1.5,1.5
		V33c0,0.8,0.7,1.5,1.5,1.5h13.5c0.8,0,1.5-0.7,1.5-1.5V17C43.1,16.2,42.4,15.5,41.6,15.5z"/>
</g>
</svg>
