<?xml version="1.0" encoding="utf-8"?>
<!-- Generator: Adobe Illustrator 26.3.1, SVG Export Plug-In . SVG Version: 6.00 Build 0)  -->
<svg version="1.0" id="Capa_1" xmlns="http://www.w3.org/2000/svg" xmlns:xlink="http://www.w3.org/1999/xlink" x="0px" y="0px"
	 viewBox="0 0 512 512" style="enable-background:new 0 0 512 512;" xml:space="preserve">
<style type="text/css">
	.st0{fill:#FFFFFF;}
</style>
<g id="Layer_x0020_1">
	<path class="st0" d="M370.13,142.02H342.3c-2.33,0-4.19-1.86-4.19-4.16c0-2.32,1.86-4.18,4.19-4.18h17.72
		c-3.89-4.89-5.84-9.86-5.79-14.87c0.04-4.77,1.9-9.47,5.58-14.01H259.65v33.05c0,2.3-1.86,4.16-4.15,4.16
		c-2.33,0-4.19-1.86-4.19-4.16v-37.23c0-2.3,1.86-4.17,4.19-4.17h114.63c1.77,0,3.37,1.13,3.93,2.83c0.6,1.68,0,3.55-1.38,4.65
		c-6.66,5.16-10.07,10.19-10.11,14.98c-0.04,4.88,3.37,10.16,10.2,15.69c1.34,1.12,1.9,2.98,1.3,4.64
		C373.46,140.91,371.9,142.02,370.13,142.02L370.13,142.02z"/>
	<path class="st0" d="M342.3,179.25c-0.95,0-1.86-0.3-2.64-0.93c-8.9-7.22-13.36-14.72-13.27-22.27c0.04-4.78,1.9-9.47,5.58-14.02
		H231.82v28.88h23.69c2.29,0,4.15,1.87,4.15,4.18c0,2.3-1.86,4.17-4.15,4.17h-27.84c-2.33,0-4.19-1.87-4.19-4.17v-37.22
		c0-2.32,1.86-4.18,4.19-4.18H342.3c1.77,0,3.37,1.13,3.93,2.81c0.6,1.69,0,3.56-1.38,4.66c-6.66,5.16-10.07,10.21-10.11,14.98
		c-0.04,4.89,3.37,10.17,10.2,15.7c1.77,1.45,2.03,4.08,0.6,5.87C344.72,178.72,343.51,179.25,342.3,179.25L342.3,179.25z"/>
	<path class="st0" d="M370.13,216.46c-0.95,0-1.86-0.3-2.64-0.93c-8.9-7.22-13.36-14.7-13.27-22.27c0.04-4.79,1.9-9.47,5.58-14.01
		H259.65v33.04c0,2.31-1.86,4.18-4.15,4.18c-2.33,0-4.19-1.87-4.19-4.18v-37.21c0-2.31,1.86-4.18,4.19-4.18h114.63
		c1.77,0,3.37,1.13,3.93,2.81c0.6,1.7,0,3.57-1.38,4.65c-6.66,5.17-10.07,10.21-10.11,14.99c-0.04,4.88,3.37,10.16,10.2,15.69
		c1.77,1.46,2.03,4.08,0.6,5.87C372.55,215.94,371.34,216.46,370.13,216.46L370.13,216.46z"/>
	<path class="st0" d="M450.74,324.34H314.42c-2.33,0-4.19-1.87-4.19-4.18v-79.64c0-2.3,1.86-4.17,4.19-4.17
		c2.29,0,4.15,1.87,4.15,4.17v75.47h132.18c2.29,0,4.19,1.87,4.19,4.17C454.94,322.47,453.03,324.34,450.74,324.34L450.74,324.34z"
		/>
	<path class="st0" d="M395.07,284.51h-25.11c-2.33,0-4.19-1.87-4.19-4.18s1.86-4.18,4.19-4.18h25.11c2.33,0,4.19,1.87,4.19,4.18
		S397.4,284.51,395.07,284.51z"/>
	<path class="st0" d="M450.74,403.99H314.42c-2.33,0-4.19-1.87-4.19-4.17v-79.66c0-2.3,1.86-4.17,4.19-4.17
		c2.29,0,4.15,1.87,4.15,4.17v75.49h132.18c2.29,0,4.19,1.86,4.19,4.18C454.94,402.13,453.03,403.99,450.74,403.99L450.74,403.99z"
		/>
	<path class="st0" d="M395.07,364.16h-25.11c-2.33,0-4.19-1.86-4.19-4.18c0-2.3,1.86-4.18,4.19-4.18h25.11
		c2.33,0,4.19,1.87,4.19,4.18C399.26,362.3,397.4,364.16,395.07,364.16z"/>
	<path class="st0" d="M447.93,216.48c-0.17,0-0.39-0.02-0.56-0.04c-2.29-0.32-3.89-2.42-3.59-4.71l4.97-36.26h-27.45l4.97,36.26
		c0.3,2.29-1.3,4.39-3.59,4.71c-2.29,0.3-4.37-1.28-4.67-3.57l-5.62-41c-0.17-1.2,0.17-2.4,0.95-3.32c0.82-0.91,1.95-1.43,3.16-1.43
		h37.04c1.21,0,2.33,0.52,3.16,1.43c0.78,0.91,1.12,2.12,0.99,3.32l-5.66,41C451.78,214.95,449.96,216.48,447.93,216.48
		L447.93,216.48z"/>
	<path class="st0" d="M427.1,175.48c-1.43,0-2.85-0.75-3.59-2.1l-13.31-23.06c-1.17-1.99-0.48-4.54,1.51-5.69
		c1.99-1.15,4.54-0.47,5.7,1.52l13.31,23.06c1.12,2,0.48,4.55-1.51,5.71C428.53,175.29,427.83,175.48,427.1,175.48L427.1,175.48z"/>
	<path class="st0" d="M437.73,175.48c-0.78,0-1.56-0.22-2.25-0.65c-1.95-1.23-2.51-3.8-1.3-5.75l12.02-19.06
		c1.25-1.96,3.8-2.53,5.75-1.31s2.55,3.8,1.34,5.75l-12.02,19.07C440.46,174.78,439.12,175.48,437.73,175.48L437.73,175.48z"/>
	<path class="st0" d="M155.53,216.46c-2.29,0-4.19-1.86-4.19-4.18c0-12.3-2.33-16.26-9.64-16.26H83c-7.31,0-9.68,3.96-9.68,16.26
		c0,2.32-1.86,4.18-4.15,4.18c-2.33,0-4.19-1.86-4.19-4.18c0-6.73,0-24.61,18.02-24.61h58.7c17.98,0,17.98,17.88,17.98,24.61
		C159.68,214.6,157.82,216.46,155.53,216.46L155.53,216.46z"/>
	<path class="st0" d="M103.83,196.03c-2.29,0-4.15-1.87-4.15-4.17v-64.49c0-2.3,1.86-4.17,4.15-4.17c2.33,0,4.19,1.87,4.19,4.17
		v64.49C108.02,194.16,106.17,196.03,103.83,196.03z M120.82,196.03c-2.29,0-4.19-1.87-4.19-4.17v-64.49c0-2.3,1.9-4.17,4.19-4.17
		c2.33,0,4.19,1.87,4.19,4.17v64.49C125.01,194.16,123.15,196.03,120.82,196.03z"/>
	<path class="st0" d="M54.86,123.2h115.19l-22.43-74.76H77.29L54.86,123.2z M175.63,131.55H49.24c-1.3,0-2.55-0.63-3.33-1.69
		c-0.78-1.06-1.04-2.42-0.65-3.69l24.94-83.1c0.52-1.76,2.12-2.97,3.98-2.97h76.51c1.86,0,3.5,1.21,4.02,2.97l24.94,83.1
		c0.39,1.27,0.13,2.63-0.65,3.69C178.22,130.92,176.97,131.55,175.63,131.55L175.63,131.55z"/>
	<path class="st0" d="M26.46,236.34h459.12v-19.87H26.46L26.46,236.34L26.46,236.34z M489.73,244.7H22.27
		c-2.29,0-4.19-1.87-4.19-4.18v-28.23c0-2.3,1.9-4.17,4.19-4.17h467.46c2.33,0,4.19,1.87,4.19,4.17v28.23
		C493.92,242.83,492.06,244.7,489.73,244.7z"/>
	<path class="st0" d="M61.3,471.9H41.29c-2.29,0-4.15-1.87-4.15-4.18V240.52c0-2.3,1.86-4.17,4.15-4.17c2.33,0,4.19,1.87,4.19,4.17
		v223.04h11.63V240.52c0-2.3,1.86-4.17,4.19-4.17c2.29,0,4.15,1.87,4.15,4.17v227.21C65.45,470.03,63.59,471.9,61.3,471.9z"/>
	<path class="st0" d="M470.71,471.9h-19.97c-2.33,0-4.19-1.87-4.19-4.18V240.52c0-2.3,1.86-4.17,4.19-4.17
		c2.29,0,4.19,1.87,4.19,4.17v223.04h11.63V240.52c0-2.3,1.86-4.17,4.15-4.17c2.33,0,4.19,1.87,4.19,4.17v227.21
		C474.9,470.03,473.05,471.9,470.71,471.9z"/>
</g>
</svg>
