<?xml version="1.0" encoding="utf-8"?>
<!-- Generator: Adobe Illustrator 26.3.1, SVG Export Plug-In . SVG Version: 6.00 Build 0)  -->
<svg version="1.0" id="Layer_1" xmlns="http://www.w3.org/2000/svg" xmlns:xlink="http://www.w3.org/1999/xlink" x="0px" y="0px"
	 viewBox="0 0 50 50" style="enable-background:new 0 0 50 50;" xml:space="preserve">
<style type="text/css">
	.st0{fill:#010101;}
</style>
<g>
	<path class="st0" d="M15.8,13.01h2.02l-2.76,6.9c-0.16,0.41,0.03,0.88,0.45,1.04c0.31,0.12,0.66,0.04,0.89-0.2l9.6-10.4
		c0.3-0.32,0.28-0.83-0.04-1.13C25.8,9.08,25.6,9.01,25.4,9.01h-3.14l2.16-2.7c0.28-0.34,0.22-0.85-0.12-1.12
		c-0.14-0.11-0.32-0.18-0.5-0.18h-5.6c-0.33,0-0.63,0.21-0.75,0.52l-2.4,6.4c-0.16,0.41,0.05,0.87,0.47,1.03
		C15.61,12.99,15.71,13.01,15.8,13.01L15.8,13.01z M18.76,6.61h3.38l-2.16,2.7c-0.28,0.34-0.22,0.85,0.12,1.12
		c0.14,0.11,0.32,0.18,0.5,0.18h2.97l-5.42,5.87l1.59-3.97c0.16-0.41-0.04-0.88-0.45-1.04c-0.09-0.04-0.2-0.06-0.3-0.06h-2.05
		L18.76,6.61z"/>
	<path class="st0" d="M19.8,36.2c1.77,0,3.2-1.43,3.2-3.2c0-1.77-1.43-3.2-3.2-3.2s-3.2,1.43-3.2,3.2
		C16.6,34.77,18.03,36.2,19.8,36.2z M19.8,31.4c0.88,0,1.6,0.72,1.6,1.6c0,0.88-0.72,1.6-1.6,1.6s-1.6-0.72-1.6-1.6
		C18.2,32.12,18.92,31.4,19.8,31.4z"/>
	<path class="st0" d="M41.4,31.4V29h-1.6v2.4h-1.6V29h-1.6v2.4c-0.44,0-0.8,0.36-0.8,0.8v2.4c0,1.46,0.99,2.73,2.4,3.1v5.7
		c0,1.32-1.07,2.4-2.4,2.4h-4V18.6c0-0.44-0.36-0.8-0.8-0.8h-0.75c2.85-5.77,0.48-12.75-5.29-15.6S12.2,1.73,9.35,7.5
		c-1.6,3.25-1.6,7.06,0,10.31H8.6c-0.44,0-0.8,0.36-0.8,0.8v29.6c0,0.44,0.36,0.8,0.8,0.8H31c0.44,0,0.8-0.36,0.8-0.8v-0.8h4
		c2.21,0,4-1.79,4-4v-5.7c1.41-0.37,2.4-1.64,2.4-3.1v-2.4C42.2,31.76,41.84,31.4,41.4,31.4z M19.8,2.61
		c5.55,0,10.05,4.5,10.05,10.05S25.35,22.7,19.8,22.7S9.75,18.2,9.75,12.66C9.76,7.11,14.25,2.61,19.8,2.61z M13.4,47.4h-4v-28h0.91
		c0.84,1.17,1.89,2.18,3.09,2.98V47.4z M21.4,47.4h-3.2v-1.6h3.2V47.4z M21.4,44.2h-3.2v-1.6h3.2V44.2z M21.4,41h-3.2v-1.6h3.2V41z
		 M24.6,47.4H23v-8.8c0-0.44-0.36-0.8-0.8-0.8h-4.8c-0.44,0-0.8,0.36-0.8,0.8v8.8H15V28.2h9.6V47.4z M24.6,26.6H15v-3.33
		c3.05,1.38,6.55,1.38,9.6,0V26.6z M30.2,47.4h-4V22.38c1.2-0.79,2.25-1.81,3.09-2.98h0.91V47.4z M40.6,34.6
		c0,0.88-0.72,1.6-1.6,1.6s-1.6-0.72-1.6-1.6V33h3.2V34.6z"/>
</g>
</svg>
