<?xml version="1.0" encoding="utf-8"?>
<!-- Generator: Adobe Illustrator 26.3.1, SVG Export Plug-In . SVG Version: 6.00 Build 0)  -->
<svg version="1.1" id="Layer_1" xmlns="http://www.w3.org/2000/svg" xmlns:xlink="http://www.w3.org/1999/xlink" x="0px" y="0px"
	 viewBox="0 0 50 50" style="enable-background:new 0 0 50 50;" xml:space="preserve">
<g>
	<path d="M37,2.5H13c-1.6,0-2.8,1.3-2.8,2.8v36.6c0,1.3,0.9,2.4,2.1,2.7v2.2c0,0.4,0.3,0.7,0.7,0.7h2.8c0.3,0,0.5-0.2,0.6-0.4
		l1.2-2.4h14.6l1.2,2.4c0.1,0.2,0.4,0.4,0.6,0.4H37c0.4,0,0.7-0.3,0.7-0.7v-2.2c1.2-0.3,2.1-1.4,2.1-2.7V5.3
		C39.8,3.8,38.5,2.5,37,2.5z M15.4,46.1h-1.7v-1.4h2.4L15.4,46.1z M36.2,46.1h-1.7l-0.7-1.4h2.4V46.1z M38.4,41.9
		c0,0.8-0.6,1.4-1.4,1.4H13c-0.8,0-1.4-0.6-1.4-1.4V5.3c0-0.8,0.6-1.4,1.4-1.4H37c0.8,0,1.4,0.6,1.4,1.4V41.9z"/>
	<path d="M36.2,5.3H13.8C13.4,5.3,13,5.6,13,6v9.8c0,0.4,0.3,0.7,0.7,0.7h22.5c0.4,0,0.7-0.3,0.7-0.7V6C37,5.6,36.6,5.3,36.2,5.3z
		 M35.5,15.2H14.5V6.7h21.1V15.2z"/>
	<path d="M22.2,10.9h5.6c0.4,0,0.7-0.3,0.7-0.7V8.8c0-0.4-0.3-0.7-0.7-0.7s-0.7,0.3-0.7,0.7v0.7h-4.2V8.8c0-0.4-0.3-0.7-0.7-0.7
		s-0.7,0.3-0.7,0.7v1.4C21.5,10.6,21.8,10.9,22.2,10.9z"/>
	<path d="M36.2,18H13.8c-0.4,0-0.7,0.3-0.7,0.7v9.8c0,0.4,0.3,0.7,0.7,0.7h22.5c0.4,0,0.7-0.3,0.7-0.7v-9.8C37,18.3,36.6,18,36.2,18
		z M35.5,27.8H14.5v-8.4h21.1V27.8z"/>
	<path d="M22.2,23.6h5.6c0.4,0,0.7-0.3,0.7-0.7v-1.4c0-0.4-0.3-0.7-0.7-0.7s-0.7,0.3-0.7,0.7v0.7h-4.2v-0.7c0-0.4-0.3-0.7-0.7-0.7
		s-0.7,0.3-0.7,0.7v1.4C21.5,23.3,21.8,23.6,22.2,23.6z"/>
	<path d="M36.2,30.6H13.8c-0.4,0-0.7,0.3-0.7,0.7v9.8c0,0.4,0.3,0.7,0.7,0.7h22.5c0.4,0,0.7-0.3,0.7-0.7v-9.8
		C37,30.9,36.6,30.6,36.2,30.6z M35.5,40.5H14.5V32h21.1V40.5z"/>
	<path d="M22.2,36.2h5.6c0.4,0,0.7-0.3,0.7-0.7v-1.4c0-0.4-0.3-0.7-0.7-0.7s-0.7,0.3-0.7,0.7v0.7h-4.2v-0.7c0-0.4-0.3-0.7-0.7-0.7
		s-0.7,0.3-0.7,0.7v1.4C21.5,35.9,21.8,36.2,22.2,36.2z"/>
</g>
</svg>
