<?xml version="1.0" encoding="utf-8"?>
<!-- Generator: Adobe Illustrator 26.3.1, SVG Export Plug-In . SVG Version: 6.00 Build 0)  -->
<svg version="1.1" id="Layer_1" xmlns="http://www.w3.org/2000/svg" xmlns:xlink="http://www.w3.org/1999/xlink" x="0px" y="0px"
	 viewBox="0 0 50 50" style="enable-background:new 0 0 50 50;" xml:space="preserve">
<style type="text/css">
	.st0{clip-path:url(#SVGID_00000009557786985182100920000000682786229315600545_);}
	.st1{fill:none;stroke:#000000;stroke-width:1.192;stroke-linecap:round;stroke-linejoin:round;stroke-miterlimit:13.3333;}
	.st2{clip-path:url(#SVGID_00000166656964215582944970000010747694754629016757_);}
	
		.st3{fill:none;stroke:#000000;stroke-width:1.192;stroke-linecap:round;stroke-linejoin:round;stroke-miterlimit:13.3333;stroke-dasharray:1.2715,2.2251;}
</style>
<g id="g4875" transform="matrix(1.3333333,0,0,-1.3333333,0,682.66667)">
	<g id="g4877">
		<g>
			<defs>
				<rect id="SVGID_1_" x="-1.6" y="472.9" width="40.7" height="40.7"/>
			</defs>
			<clipPath id="SVGID_00000173856538636391613510000008693579440600095621_">
				<use xlink:href="#SVGID_1_"  style="overflow:visible;"/>
			</clipPath>
			<g id="g4879" style="clip-path:url(#SVGID_00000173856538636391613510000008693579440600095621_);">
				<g id="g4885" transform="translate(7.5,23.5322)">
					<path id="path4887" class="st1" d="M-3.6,455.9h29.6"/>
				</g>
				<g id="g4889" transform="translate(23.5322,23.5322)">
					<path id="path4891" class="st1" d="M-18.6,455.9v11.5H9.1v-11.5"/>
				</g>
				<g id="g4893" transform="translate(71.6289,103.6934)">
					<path id="path4895" class="st1" d="M-63.9,380.5v3.8h3.8v-8.6"/>
				</g>
				<g id="g4897" transform="translate(71.6289,23.5322)">
					<path id="path4899" class="st1" d="M-63.9,455.9v2.9"/>
				</g>
			</g>
		</g>
	</g>
	<g id="g4901" transform="translate(71.6289,55.5967)">
		<path id="path4903" class="st1" d="M-63.9,425.7h3.8"/>
	</g>
	<path id="path4905" class="st1" d="M21.6,483.2h-7.2v4.8h7.2V483.2z"/>
	<g id="g4907" transform="translate(215.9194,167.8228)">
		<path id="path4909" class="st1" d="M-199.6,320.2v-4.8"/>
	</g>
	<g id="g4911" transform="translate(440.3711,119.7256)">
		<path id="path4913" class="st1" d="M-410.6,365.4v-1.9h-5.3v4.8h5.3v-1"/>
	</g>
	<g id="g4915" transform="translate(384.2583,167.8228)">
		<path id="path4917" class="st1" d="M-357.9,320.2v-4.8"/>
	</g>
	<g id="g4919" transform="translate(103.6934,135.7583)">
		<path id="path4921" class="st1" d="M-94,350.3v-1"/>
	</g>
	<g id="g4923">
		<g>
			<defs>
				<rect id="SVGID_00000024700954306102088390000010561596892734491060_" x="-1.6" y="472.9" width="40.7" height="40.7"/>
			</defs>
			<clipPath id="SVGID_00000176012946488582962040000010721634513609501616_">
				<use xlink:href="#SVGID_00000024700954306102088390000010561596892734491060_"  style="overflow:visible;"/>
			</clipPath>
			<g id="g4925" style="clip-path:url(#SVGID_00000176012946488582962040000010721634513609501616_);">
				<g id="g4931" transform="translate(23.5322,247.9839)">
					<path id="path4933" class="st1" d="M-18.6,244.8v1"/>
				</g>
				<g id="g4935" transform="translate(23.5322,296.0806)">
					<path id="path4937" class="st1" d="M-18.6,199.6v1"/>
				</g>
				<g id="g4939" transform="translate(23.5322,344.1772)">
					<path id="path4941" class="st1" d="M-18.6,154.3v1"/>
				</g>
				<g id="g4943" transform="translate(488.4678,247.9839)">
					<path id="path4945" class="st1" d="M-455.9,244.8v1"/>
				</g>
				<g id="g4947" transform="translate(488.4678,296.0806)">
					<path id="path4949" class="st1" d="M-455.9,199.6v1"/>
				</g>
				<g id="g4951" transform="translate(488.4678,344.1772)">
					<path id="path4953" class="st1" d="M-455.9,154.3v1"/>
				</g>
				<g id="g4955" transform="translate(256,488.4678)">
					<path id="path4957" class="st3" d="M-237.2,18.6l-14.8-5.7"/>
				</g>
				<g id="g4959" transform="translate(256,488.4678)">
					<path id="path4961" class="st3" d="M-237.2,18.6l14.8-5.7"/>
				</g>
			</g>
		</g>
	</g>
	<g id="g4963" transform="translate(95.6772,328.145)">
		<path id="path4965" class="st1" d="M-86.5,169.4v-1"/>
	</g>
	<g id="g4967" transform="translate(207.9033,328.145)">
		<path id="path4969" class="st1" d="M-192,169.4v-1"/>
	</g>
	<g id="g4971" transform="translate(95.6772,360.2095)">
		<path id="path4973" class="st1" d="M-86.5,139.3h1"/>
	</g>
	<g id="g4975" transform="translate(143.7744,360.2095)">
		<path id="path4977" class="st1" d="M-131.7,139.3h1"/>
	</g>
	<g id="g4979" transform="translate(191.8711,360.2095)">
		<path id="path4981" class="st1" d="M-176.9,139.3h1"/>
	</g>
	<g id="g4983" transform="translate(95.6772,280.0483)">
		<path id="path4985" class="st1" d="M-86.5,214.6h1"/>
	</g>
	<g id="g4987" transform="translate(143.7744,280.0483)">
		<path id="path4989" class="st1" d="M-131.7,214.6h1"/>
	</g>
	<g id="g4991" transform="translate(191.8711,280.0483)">
		<path id="path4993" class="st1" d="M-176.9,214.6h1"/>
	</g>
	<g id="g4995" transform="translate(256,328.145)">
		<path id="path4997" class="st1" d="M-237.2,169.4v-1"/>
	</g>
	<g id="g4999" transform="translate(416.3228,328.145)">
		<path id="path5001" class="st1" d="M-388,169.4v-1"/>
	</g>
	<g id="g5003" transform="translate(304.0967,360.2095)">
		<path id="path5005" class="st1" d="M-282.5,139.3h1"/>
	</g>
	<g id="g5007" transform="translate(256,360.2095)">
		<path id="path5009" class="st1" d="M-237.2,139.3h1"/>
	</g>
	<g id="g5011" transform="translate(352.1934,360.2095)">
		<path id="path5013" class="st1" d="M-327.7,139.3h1"/>
	</g>
	<g id="g5015" transform="translate(400.2905,360.2095)">
		<path id="path5017" class="st1" d="M-372.9,139.3h1"/>
	</g>
	<g id="g5019" transform="translate(304.0967,280.0483)">
		<path id="path5021" class="st1" d="M-282.5,214.6h1"/>
	</g>
	<g id="g5023" transform="translate(256,280.0483)">
		<path id="path5025" class="st1" d="M-237.2,214.6h1"/>
	</g>
	<g id="g5027" transform="translate(352.1934,280.0483)">
		<path id="path5029" class="st1" d="M-327.7,214.6h1"/>
	</g>
	<g id="g5031" transform="translate(400.2905,280.0483)">
		<path id="path5033" class="st1" d="M-372.9,214.6h1"/>
	</g>
</g>
</svg>
