<?xml version="1.0" encoding="utf-8"?>
<!-- Generator: Adobe Illustrator 26.3.1, SVG Export Plug-In . SVG Version: 6.00 Build 0)  -->
<svg version="1.0" id="Layer_1" xmlns="http://www.w3.org/2000/svg" xmlns:xlink="http://www.w3.org/1999/xlink" x="0px" y="0px"
	 viewBox="0 0 50 50" style="enable-background:new 0 0 50 50;" xml:space="preserve">
<style type="text/css">
	.st0{fill:#010101;}
</style>
<g id="OUTLINE">
	<path class="st0" d="M18.54,35.77c1.98,0,3.59-1.61,3.59-3.59v-0.72c0-0.4-0.32-0.72-0.72-0.72h-2.15c0-1.98-1.61-3.59-3.59-3.59
		H10.3L8.51,20L10,15.53c0.45-1.37-0.17-2.86-1.46-3.51l-0.89-0.45c-1.43-0.72-3.18-0.14-3.89,1.3c-0.2,0.4-0.31,0.85-0.31,1.3v5.8
		c0,0.05,0,0.09,0.01,0.13L5.9,32.85c0.32,1.69,1.8,2.92,3.53,2.92h0.5v4.01l-2.66,2.66c-1.07-0.51-2.36-0.06-2.87,1.02
		c-0.51,1.07-0.06,2.36,1.02,2.87s2.36,0.06,2.87-1.02c0.28-0.59,0.28-1.27,0-1.86l2.66-2.66h0.42v1.56
		c-1.12,0.4-1.71,1.63-1.31,2.75c0.4,1.12,1.63,1.71,2.75,1.31s1.71-1.63,1.31-2.75c-0.22-0.61-0.7-1.1-1.31-1.31V40.8h0.42
		l2.66,2.66c-0.51,1.07-0.06,2.36,1.02,2.87s2.36,0.06,2.87-1.02c0.51-1.07,0.06-2.36-1.02-2.87c-0.59-0.28-1.27-0.28-1.86,0
		l-2.66-2.66v-4.01H18.54z M6.33,45.1c-0.4,0-0.72-0.32-0.72-0.72c0-0.4,0.32-0.72,0.72-0.72c0.4,0,0.72,0.32,0.72,0.72
		C7.05,44.78,6.73,45.1,6.33,45.1z M17.82,43.67c0.4,0,0.72,0.32,0.72,0.72c0,0.4-0.32,0.72-0.72,0.72s-0.72-0.32-0.72-0.72
		C17.1,43.99,17.42,43.67,17.82,43.67z M15.67,28.59c1.19,0,2.15,0.97,2.15,2.15h-4.94c-0.99,0-1.85-0.67-2.09-1.63l-0.13-0.52
		H15.67z M12.07,45.1c-0.4,0-0.72-0.32-0.72-0.72c0-0.4,0.32-0.72,0.72-0.72c0.4,0,0.72,0.32,0.72,0.72
		C12.79,44.78,12.47,45.1,12.07,45.1z M12.79,39.36h-1.44v-3.59h1.44V39.36z M9.43,34.33c-1.03,0-1.92-0.74-2.12-1.75L4.89,19.9
		v-5.73c0-0.81,0.66-1.47,1.47-1.47c0.23,0,0.45,0.05,0.66,0.15l0.89,0.45c0.65,0.33,0.96,1.08,0.73,1.77l-1.56,4.67
		c-0.04,0.13-0.05,0.27-0.02,0.4l2.33,9.31c0.4,1.6,1.83,2.72,3.48,2.72h7.81c0,1.19-0.97,2.15-2.15,2.15H9.43z"/>
	<path class="st0" d="M46.05,12.56c-0.81-1.22-2.4-1.64-3.71-0.99l-0.89,0.45c-1.29,0.65-1.91,2.14-1.46,3.51L41.49,20l-1.79,7.15
		h-5.36c-1.98,0-3.59,1.61-3.59,3.59h-2.15c-0.4,0-0.72,0.32-0.72,0.72v0.72c0,1.98,1.61,3.59,3.59,3.59h4.31v4.01l-2.66,2.66
		c-1.07-0.51-2.36-0.06-2.87,1.02c-0.51,1.07-0.06,2.36,1.02,2.87s2.36,0.06,2.87-1.02c0.28-0.59,0.28-1.27,0-1.86l2.66-2.66h0.42
		v1.56c-1.12,0.4-1.71,1.63-1.31,2.75s1.63,1.71,2.75,1.31c1.12-0.4,1.71-1.63,1.31-2.75c-0.22-0.61-0.7-1.1-1.31-1.31V40.8h0.42
		l2.66,2.66c-0.51,1.07-0.06,2.36,1.02,2.87s2.36,0.06,2.87-1.02c0.51-1.07,0.06-2.36-1.02-2.87c-0.59-0.28-1.27-0.28-1.86,0
		l-2.66-2.66v-4.01h0.5c1.72,0,3.2-1.23,3.53-2.92l2.43-12.74c0.01-0.04,0.01-0.09,0.01-0.13v-5.8
		C46.54,13.6,46.37,13.04,46.05,12.56z M32.18,45.1c-0.4,0-0.72-0.32-0.72-0.72c0-0.4,0.32-0.72,0.72-0.72
		c0.4,0,0.72,0.32,0.72,0.72C32.9,44.78,32.58,45.1,32.18,45.1z M43.67,43.67c0.4,0,0.72,0.32,0.72,0.72c0,0.4-0.32,0.72-0.72,0.72
		c-0.4,0-0.72-0.32-0.72-0.72C42.95,43.99,43.27,43.67,43.67,43.67z M34.33,28.59h5l-0.13,0.52c-0.24,0.96-1.1,1.63-2.09,1.63h-4.94
		C32.18,29.55,33.15,28.59,34.33,28.59z M37.92,45.1c-0.4,0-0.72-0.32-0.72-0.72c0-0.4,0.32-0.72,0.72-0.72
		c0.4,0,0.72,0.32,0.72,0.72C38.64,44.78,38.32,45.1,37.92,45.1z M38.64,39.36h-1.44v-3.59h1.44V39.36z M45.11,19.9l-2.41,12.68
		c-0.19,1.02-1.08,1.75-2.12,1.75h-9.11c-1.19,0-2.15-0.97-2.15-2.15h7.81c1.65,0,3.09-1.12,3.48-2.72l2.33-9.31
		c0.03-0.13,0.03-0.27-0.02-0.4l-1.56-4.67c-0.23-0.69,0.08-1.45,0.73-1.77l0.89-0.45c0.72-0.36,1.6-0.07,1.97,0.66
		c0.1,0.2,0.15,0.43,0.15,0.66V19.9z"/>
	<path class="st0" d="M25.72,25.72h12.21v-1.44H31.8c-1.19,0-2.15-0.96-2.15-2.15c0-0.08,0-0.16,0.01-0.24l0.8-7.18
		c0.1-0.93,0.8-1.69,1.72-1.88v7.86c0,1.19,0.97,2.15,2.15,2.15h1.44c0.4,0,0.72-0.32,0.72-0.72V9.92c0-0.4-0.32-0.72-0.72-0.72
		h-1.44c-1.19,0-2.15,0.97-2.15,2.15v0.02c-1.66,0.19-2.97,1.51-3.15,3.17l-0.8,7.18c-0.1,0.91,0.15,1.82,0.7,2.55h-3.21V10.19
		l3.99-4.56c0.05-0.06,0.1-0.11,0.16-0.16l0.16,0.32c0.6,1.22,1.85,1.99,3.21,1.98h6.12c0.4,0,0.72-0.32,0.72-0.72
		c0-1.98-1.61-3.59-3.59-3.59h-5.16c-1.04,0-2.02,0.45-2.7,1.23l-2.91,3.33V4.89h-1.44v3.12l-2.91-3.33
		c-0.68-0.78-1.67-1.23-2.7-1.23h-5.16c-1.98,0-3.59,1.61-3.59,3.59c0,0.4,0.32,0.72,0.72,0.72h6.12c1.36,0,2.61-0.77,3.21-1.98
		l0.16-0.32c0.06,0.05,0.11,0.11,0.16,0.16l3.99,4.56v14.09h-4.81l-5.62-3.74c-0.36-0.24-0.45-0.72-0.22-1.08
		c0.13-0.19,0.34-0.32,0.57-0.34l5.83-0.58c0.3-0.03,0.54-0.24,0.62-0.53l2.15-7.9l-1.39-0.38l-2.02,7.42l-5.34,0.53
		c-1.22,0.12-2.1,1.21-1.98,2.42c0.07,0.66,0.42,1.25,0.97,1.62l3.82,2.55h-4.81v1.44h12.21V45.1h-2.87v1.44h7.18V45.1h-2.87V25.72z
		 M33.62,11.36c0-0.4,0.32-0.72,0.72-0.72h0.72v10.77h-0.72c-0.4,0-0.72-0.32-0.72-0.72V11.36z M36.49,4.89
		c0.91,0,1.73,0.58,2.03,1.44h-5.28c-0.82,0-1.56-0.46-1.93-1.19L31.19,4.9C31.24,4.89,36.49,4.89,36.49,4.89z M18.69,5.14
		c-0.36,0.73-1.11,1.19-1.93,1.19h-5.28c0.31-0.86,1.12-1.44,2.03-1.44c0,0,5.25,0,5.3,0L18.69,5.14z"/>
	<rect x="14.23" y="9.2" class="st0" width="1.44" height="2.87"/>
	
		<rect x="17.82" y="8.98" transform="matrix(0.8321 -0.5547 0.5547 0.8321 -2.5883 12.0091)" class="st0" width="1.44" height="2.59"/>
	
		<rect x="9.47" y="9.56" transform="matrix(0.7071 -0.7071 0.7071 0.7071 -4.047 10.7873)" class="st0" width="3.05" height="1.44"/>
</g>
</svg>
