<?xml version="1.0" encoding="utf-8"?>
<!-- Generator: Adobe Illustrator 26.3.1, SVG Export Plug-In . SVG Version: 6.00 Build 0)  -->
<svg version="1.0" id="Layer_1" xmlns="http://www.w3.org/2000/svg" xmlns:xlink="http://www.w3.org/1999/xlink" x="0px" y="0px"
	 viewBox="0 0 50 50" style="enable-background:new 0 0 50 50;" xml:space="preserve">
<style type="text/css">
	.st0{fill:#010101;}
</style>
<g id="Layer_7">
	<path class="st0" d="M48.42,37.55c0.23,0,0.42-0.19,0.42-0.42V4.51c0-0.23-0.19-0.42-0.42-0.42H14.96c-0.07,0-0.14,0.02-0.2,0.06
		l0,0L1.38,11.68c-0.13,0.07-0.21,0.21-0.22,0.36v32.62c0,0.23,0.19,0.42,0.42,0.42c0.07,0,0.14-0.02,0.2-0.05l13.29-7.47h2.4v3.76
		c0,0.53,0.34,1,0.84,1.18v1.33c0,0.23,0.19,0.42,0.42,0.42h1.25c0.23,0,0.42-0.19,0.42-0.42v-1.25h11.71v1.25
		c0,0.23,0.19,0.42,0.42,0.42h1.25c0.23,0,0.42-0.19,0.42-0.42v-1.33c0.5-0.18,0.83-0.65,0.84-1.18v-3.76h5.85v6.05l-2.32,1.55
		c-0.19,0.13-0.24,0.39-0.11,0.58c0.08,0.11,0.21,0.18,0.34,0.18h6.69c0.23,0,0.42-0.19,0.41-0.42c0-0.14-0.07-0.27-0.18-0.34
		l-2.32-1.55v-6.05H48.42z M10.78,39l-5.02,2.82V26.5l5.02-2.87V39z M14.55,36.88l-2.93,1.64V22.91c0-0.15-0.08-0.29-0.21-0.36
		c-0.13-0.07-0.29-0.07-0.42,0l-5.85,3.35c-0.13,0.07-0.21,0.21-0.21,0.36v16.04L2,43.94V12.28l12.55-7.05V36.88z M19.56,43.4h-0.42
		v-0.84h0.42V43.4z M33.36,43.4h-0.42v-0.84h0.42V43.4z M34.2,41.31c0,0.23-0.19,0.42-0.42,0.42H18.73c-0.23,0-0.42-0.19-0.42-0.42
		v-4.18c0-0.46,0.37-0.84,0.84-0.84c0.46,0,0.84,0.37,0.84,0.84v2.51c0,0.23,0.19,0.42,0.42,0.42h11.71c0.23,0,0.42-0.19,0.42-0.42
		v-2.51c0-0.46,0.37-0.84,0.84-0.84c0.46,0,0.84,0.37,0.84,0.84V41.31z M26.67,35.87v-2.93h5.85c0.23,0,0.42,0.19,0.42,0.42v2.15
		c-0.74,0.19-1.25,0.85-1.25,1.61v0.42h-4.6c-0.31,0-0.61,0.12-0.84,0.33c-0.23-0.21-0.53-0.32-0.84-0.33h-4.6v-0.42
		c0-0.76-0.52-1.42-1.25-1.61v-2.15c0-0.23,0.19-0.42,0.42-0.42h5.85v2.93H26.67z M31.69,38.38v0.84h-5.02V38.8
		c0-0.23,0.19-0.42,0.42-0.42H31.69z M25.84,38.8v0.42h-5.02v-0.84h4.6C25.65,38.38,25.84,38.57,25.84,38.8z M34.98,36.71
		c-0.15-0.59-0.61-1.04-1.2-1.2v-2.15c0-0.69-0.56-1.25-1.25-1.25H19.98c-0.69,0-1.25,0.56-1.25,1.25v2.15
		c-0.59,0.15-1.04,0.61-1.2,1.2h-2.15V4.93H48v31.78h-4.6v-6.69h1.25v2.93h0.84v-2.93h0.84c0.14,0,0.27-0.07,0.35-0.19
		c0.08-0.12,0.1-0.28,0.03-0.42l-2.93-6.27c-0.07-0.14-0.22-0.23-0.38-0.23h-2.51c-0.17,0-0.33,0.1-0.39,0.26l-2.51,6.27
		c-0.09,0.21,0.02,0.46,0.23,0.54c0.05,0.02,0.1,0.03,0.16,0.03h2.51v6.69H34.98z M44.11,45.07h-3.93l1.36-0.91
		c0.12-0.08,0.19-0.21,0.19-0.35v-13.8h0.84v13.8c0,0.14,0.07,0.27,0.19,0.35L44.11,45.07z M39,29.18l2.17-5.44h1.96l2.54,5.44H39z"
		/>
	<circle class="st0" cx="7.44" cy="32.95" r="0.84"/>
	<path class="st0" d="M25.42,14.13h5.02c0.23,0,0.42-0.19,0.42-0.42V8.69c0-0.23-0.19-0.42-0.42-0.42h-5.02
		C25.19,8.27,25,8.46,25,8.69v5.02C25,13.94,25.19,14.13,25.42,14.13z M25.84,9.11h4.18v4.18h-4.18V9.11z"/>
	<path class="st0" d="M25.42,20.82h5.02c0.23,0,0.42-0.19,0.42-0.42v-5.02c0-0.23-0.19-0.42-0.42-0.42h-5.02
		c-0.23,0-0.42,0.19-0.42,0.42v5.02C25,20.63,25.19,20.82,25.42,20.82z M25.84,15.8h4.18v4.18h-4.18V15.8z"/>
	<path class="st0" d="M32.11,20.82h5.02c0.23,0,0.42-0.19,0.42-0.42v-5.02c0-0.23-0.19-0.42-0.42-0.42h-5.02
		c-0.23,0-0.42,0.19-0.42,0.42v5.02C31.69,20.63,31.88,20.82,32.11,20.82z M32.53,15.8h4.18v4.18h-4.18V15.8z"/>
	<path class="st0" d="M32.11,14.13h5.02c0.23,0,0.42-0.19,0.42-0.42V8.69c0-0.23-0.19-0.42-0.42-0.42h-5.02
		c-0.23,0-0.42,0.19-0.42,0.42v5.02C31.69,13.94,31.88,14.13,32.11,14.13z M32.53,9.11h4.18v4.18h-4.18V9.11z"/>
	<path class="st0" d="M39.22,22.07V7.02c0-0.23-0.19-0.42-0.42-0.42H23.75c-0.23,0-0.42,0.19-0.42,0.42v15.05
		c0,0.23,0.19,0.42,0.42,0.42H38.8C39.03,22.49,39.22,22.3,39.22,22.07z M38.38,21.65H24.16V7.44h14.22V21.65z"/>
</g>
</svg>
