<?xml version="1.0" encoding="utf-8"?>
<!-- Generator: Adobe Illustrator 26.3.1, SVG Export Plug-In . SVG Version: 6.00 Build 0)  -->
<svg version="1.1" id="Layer_1" xmlns="http://www.w3.org/2000/svg" xmlns:xlink="http://www.w3.org/1999/xlink" x="0px" y="0px"
	 viewBox="0 0 50 50" style="enable-background:new 0 0 50 50;" xml:space="preserve">
<g>
	<path d="M37.4,24.4c1.3,0,2.5-0.5,3.3-1.3c0.7-0.7,1.1-1.7,1.1-2.6v-4.4c0-2.2-2-4-4.4-4s-4.4,1.8-4.4,4v4.4
		C33,22.6,35,24.4,37.4,24.4z M33.9,20.4v-4.4c0-1.7,1.6-3.1,3.6-3.1s3.6,1.4,3.6,3.1v4.4c0,0.7-0.3,1.4-0.9,2
		c-0.7,0.7-1.7,1.1-2.7,1.1C35.5,23.5,33.9,22.1,33.9,20.4z"/>
	<path d="M37.4,22.8c0.2,0,0.4-0.2,0.4-0.4s-0.2-0.4-0.4-0.4c-1.1,0-2-0.8-2-1.7v-3.8c0-1,0.9-1.7,2-1.7s2,0.8,2,1.7v3.8
		c0,0.2,0.2,0.4,0.4,0.4s0.4-0.2,0.4-0.4v-3.8c0-0.7-0.3-1.4-0.9-1.9c-0.6-0.5-1.3-0.8-2.1-0.8h0c-1.6,0-2.9,1.2-2.9,2.6v3.8
		C34.5,21.6,35.8,22.8,37.4,22.8z"/>
	<path d="M37.4,15.3c-0.2,0-0.4,0.2-0.4,0.4s0.2,0.4,0.4,0.4c0.4,0,0.7,0.3,0.7,0.6v2.9c0,0.3-0.3,0.6-0.7,0.6s-0.7-0.3-0.7-0.6
		v-2.9c0-0.2-0.2-0.4-0.4-0.4s-0.4,0.2-0.4,0.4v2.9c0,0.8,0.7,1.5,1.6,1.5s1.6-0.7,1.6-1.5v-2.9C39,16,38.3,15.3,37.4,15.3z"/>
	<path d="M44.4,7.8H5.6c-1.8,0-3.2,1.4-3.2,3.2v28c0,1.8,1.4,3.2,3.2,3.2h38.7c1.8,0,3.2-1.4,3.2-3.2V11C47.6,9.2,46.2,7.8,44.4,7.8
		z M46.7,11v28c0,1.3-1,2.3-2.3,2.3H5.6c-1.3,0-2.3-1-2.3-2.3V11c0-1.3,1-2.3,2.3-2.3h38.7C45.7,8.7,46.7,9.7,46.7,11z"/>
	<path d="M28.2,12.1H8c-0.7,0-1.3,0.6-1.3,1.3v8.7c0,0.7,0.6,1.3,1.3,1.3h20.2c0.7,0,1.3-0.6,1.3-1.3v-8.7
		C29.5,12.7,28.9,12.1,28.2,12.1z M7.6,13.4C7.6,13.2,7.8,13,8,13h20.2c0.2,0,0.4,0.2,0.4,0.4v8.7c0,0.2-0.2,0.4-0.4,0.4L8,22.6
		c-0.2,0-0.4-0.2-0.4-0.4V13.4z"/>
	<path d="M10.9,26c-1,0-1.8,0.8-1.8,1.8s0.8,1.8,1.8,1.8c0,0,0,0,0,0c0.5,0,0.9-0.2,1.2-0.5c0.3-0.3,0.5-0.8,0.5-1.3
		C12.7,26.8,11.9,26,10.9,26z M11.8,27.8c0,0.5-0.4,0.9-0.9,0.9s-0.9-0.4-0.9-0.9s0.4-0.9,0.9-0.9C11.4,26.9,11.8,27.3,11.8,27.8z"
		/>
	<path d="M18.1,26c-1,0-1.8,0.8-1.8,1.8s0.8,1.8,1.8,1.8c0,0,0,0,0,0c0.5,0,0.9-0.2,1.2-0.5c0.3-0.3,0.5-0.8,0.5-1.3
		C19.9,26.8,19.1,26,18.1,26z M19,27.8c0,0.5-0.4,0.9-0.9,0.9c-0.5,0-0.9-0.4-0.9-0.9s0.4-0.9,0.9-0.9C18.6,26.9,19,27.3,19,27.8z"
		/>
	<path d="M25.3,26c-1,0-1.8,0.8-1.8,1.8s0.8,1.8,1.8,1.8c0,0,0,0,0,0c0.5,0,0.9-0.2,1.2-0.5c0.3-0.3,0.5-0.8,0.5-1.3
		C27.1,26.8,26.3,26,25.3,26z M26.2,27.8c0,0.5-0.4,0.9-0.9,0.9c-0.5,0-0.9-0.4-0.9-0.9s0.4-0.9,0.9-0.9
		C25.8,26.9,26.2,27.3,26.2,27.8z"/>
	<path d="M10.9,30.2c-1,0-1.8,0.8-1.8,1.8s0.8,1.8,1.8,1.8s1.8-0.8,1.8-1.8S11.9,30.2,10.9,30.2z M11.8,32c0,0.5-0.4,0.9-0.9,0.9
		s-0.9-0.4-0.9-0.9s0.4-0.9,0.9-0.9C11.4,31.1,11.8,31.5,11.8,32z"/>
	<path d="M18.1,30.2c-1,0-1.8,0.8-1.8,1.8s0.8,1.8,1.8,1.8s1.8-0.8,1.8-1.8S19.1,30.2,18.1,30.2z M19,32c0,0.5-0.4,0.9-0.9,0.9
		c-0.5,0-0.9-0.4-0.9-0.9s0.4-0.9,0.9-0.9C18.6,31.1,19,31.5,19,32z"/>
	<path d="M25.3,30.2c-1,0-1.8,0.8-1.8,1.8s0.8,1.8,1.8,1.8s1.8-0.8,1.8-1.8S26.3,30.2,25.3,30.2z M26.2,32c0,0.5-0.4,0.9-0.9,0.9
		c-0.5,0-0.9-0.4-0.9-0.9s0.4-0.9,0.9-0.9C25.8,31.1,26.2,31.5,26.2,32z"/>
	<path d="M10.9,34.3c-1,0-1.8,0.8-1.8,1.8s0.8,1.8,1.8,1.8s1.8-0.8,1.8-1.8S11.9,34.3,10.9,34.3z M11.8,36.1c0,0.5-0.4,0.9-0.9,0.9
		s-0.9-0.4-0.9-0.9s0.4-0.9,0.9-0.9S11.8,35.6,11.8,36.1z"/>
	<path d="M18.1,34.3c-1,0-1.8,0.8-1.8,1.8s0.8,1.8,1.8,1.8s1.8-0.8,1.8-1.8S19.1,34.3,18.1,34.3z M19,36.1c0,0.5-0.4,0.9-0.9,0.9
		c-0.5,0-0.9-0.4-0.9-0.9s0.4-0.9,0.9-0.9C18.6,35.2,19,35.6,19,36.1z"/>
	<path d="M25.3,34.3c-1,0-1.8,0.8-1.8,1.8s0.8,1.8,1.8,1.8s1.8-0.8,1.8-1.8S26.3,34.3,25.3,34.3z M26.2,36.1c0,0.5-0.4,0.9-0.9,0.9
		c-0.5,0-0.9-0.4-0.9-0.9s0.4-0.9,0.9-0.9C25.8,35.2,26.2,35.6,26.2,36.1z"/>
	<path d="M42.9,26h-11c-0.2,0-0.4,0.2-0.4,0.4v11c0,0.2,0.2,0.4,0.4,0.4h11c0.2,0,0.4-0.2,0.4-0.4v-11C43.3,26.2,43.1,26,42.9,26z
		 M42.4,26.9V37H32.4V26.9H42.4z"/>
</g>
</svg>
