<?xml version="1.0" encoding="utf-8"?>
<!-- Generator: Adobe Illustrator 26.3.1, SVG Export Plug-In . SVG Version: 6.00 Build 0)  -->
<svg version="1.1" id="Layer_1" xmlns="http://www.w3.org/2000/svg" xmlns:xlink="http://www.w3.org/1999/xlink" x="0px" y="0px"
	 viewBox="0 0 50 50" style="enable-background:new 0 0 50 50;" xml:space="preserve">
<style type="text/css">
	.st0{fill-rule:evenodd;clip-rule:evenodd;}
</style>
<g id="Layer_x0020_1">
	<g id="_196441128">
		<g>
			<g id="_196440696">
				<path class="st0" d="M14.6,22.8h-4.3c-0.9,0-1.7-0.8-1.7-1.7c0-0.9,0.8-1.7,1.7-1.7h4.3c0.9,0,1.7,0.8,1.7,1.7
					C16.2,22,15.5,22.8,14.6,22.8L14.6,22.8z M10.2,20.5c-0.3,0-0.6,0.3-0.6,0.6s0.3,0.6,0.6,0.6h4.3c0.3,0,0.6-0.3,0.6-0.6
					s-0.3-0.6-0.6-0.6H10.2z"/>
			</g>
			<g id="_196441176">
				<path class="st0" d="M10.8,20.5c-0.3,0-0.5-0.2-0.5-0.5v-1.7c0-0.3,0.2-0.5,0.5-0.5c0.3,0,0.5,0.2,0.5,0.5v1.7
					C11.3,20.2,11.1,20.5,10.8,20.5z"/>
			</g>
			<g id="_196441200">
				<path class="st0" d="M14,20.5c-0.3,0-0.5-0.2-0.5-0.5v-1.7c0-0.3,0.2-0.5,0.5-0.5c0.3,0,0.5,0.2,0.5,0.5v1.7
					C14.5,20.2,14.3,20.5,14,20.5z"/>
			</g>
			<g id="_196441320">
				<path class="st0" d="M18,18.8H5.4c-0.9,0-1.7-0.8-1.7-1.7V6.8c0-0.9,0.8-1.7,1.7-1.7h13.9c0.9,0,1.7,0.8,1.7,1.7v4.2
					c0,0.3-0.2,0.5-0.5,0.5S20,11.2,20,10.9V6.8c0-0.4-0.3-0.6-0.6-0.6H5.4c-0.4,0-0.6,0.3-0.6,0.6v10.3c0,0.4,0.3,0.6,0.6,0.6H18
					c0.3,0,0.5,0.2,0.5,0.5C18.5,18.5,18.3,18.8,18,18.8z"/>
			</g>
			<g id="_196441608">
				<path class="st0" d="M45.7,22.8H32c-0.3,0-0.5-0.2-0.5-0.5s0.2-0.5,0.5-0.5h13.2v-8.1H32c-0.3,0-0.5-0.2-0.5-0.5
					s0.2-0.5,0.5-0.5h13.7c0.3,0,0.5,0.2,0.5,0.5v9.2C46.3,22.5,46,22.8,45.7,22.8z"/>
			</g>
			<g id="_196441416">
				<path class="st0" d="M45.6,19.8H32c-0.3,0-0.5-0.2-0.5-0.5s0.2-0.5,0.5-0.5h13.6c0.3,0,0.5,0.2,0.5,0.5S45.9,19.8,45.6,19.8z"/>
			</g>
			<g id="_196441392">
				<path class="st0" d="M45.6,16.6H32c-0.3,0-0.5-0.2-0.5-0.5c0-0.3,0.2-0.5,0.5-0.5h13.6c0.3,0,0.5,0.2,0.5,0.5
					C46.1,16.4,45.9,16.6,45.6,16.6z"/>
			</g>
			<g>
				<g>
					<g id="_196441536">
						<path class="st0" d="M26.7,36h-3.3c-0.3,0-0.5-0.2-0.5-0.5v-3.8c0-0.3,0.2-0.5,0.5-0.5h3.3c0.3,0,0.5,0.2,0.5,0.5v3.8
							C27.2,35.8,27,36,26.7,36z M23.9,34.9h2.3v-2.8h-2.3V34.9z"/>
					</g>
					<g id="_196442040">
						<path class="st0" d="M25,39.4c-0.3,0-0.5-0.2-0.5-0.5v-3.4c0-0.3,0.2-0.5,0.5-0.5c0.3,0,0.5,0.2,0.5,0.5v3.4
							C25.5,39.2,25.3,39.4,25,39.4z"/>
					</g>
					<g id="_196442328">
						<path class="st0" d="M31.6,41.8c-0.3,0-0.5-0.2-0.5-0.5c0-0.8-2.4-1.9-6.1-1.9s-6.1,1.1-6.1,1.9c0,0.3-0.2,0.5-0.5,0.5
							s-0.5-0.2-0.5-0.5c0-0.6,0.4-1.5,2.3-2.2c1.3-0.5,3-0.7,4.9-0.7s3.6,0.3,4.9,0.7c1.9,0.7,2.3,1.6,2.3,2.2
							C32.2,41.6,31.9,41.8,31.6,41.8z"/>
					</g>
					<g id="_196441872">
						<path class="st0" d="M18.4,44.9c-1.1,0-2.1-0.9-2.1-2.1c0-1.1,0.9-2.1,2.1-2.1c1.1,0,2.1,0.9,2.1,2.1
							C20.4,44,19.5,44.9,18.4,44.9z M18.4,41.8c-0.6,0-1,0.5-1,1c0,0.6,0.5,1,1,1c0.6,0,1-0.5,1-1C19.4,42.3,18.9,41.8,18.4,41.8z"
							/>
					</g>
					<g id="_196442232">
						<path class="st0" d="M31.6,44.9c-1.1,0-2.1-0.9-2.1-2.1c0-1.1,0.9-2.1,2.1-2.1c1.1,0,2.1,0.9,2.1,2.1
							C33.7,44,32.8,44.9,31.6,44.9z M31.6,41.8c-0.6,0-1,0.5-1,1c0,0.6,0.5,1,1,1c0.6,0,1-0.5,1-1C32.7,42.3,32.2,41.8,31.6,41.8z"
							/>
					</g>
					<g id="_196442088">
						<path class="st0" d="M25,44.9c-1.1,0-2.1-0.9-2.1-2.1c0-1.1,0.9-2.1,2.1-2.1c1.1,0,2.1,0.9,2.1,2.1C27.1,44,26.1,44.9,25,44.9
							z M25,41.8c-0.6,0-1,0.5-1,1c0,0.6,0.5,1,1,1c0.6,0,1-0.5,1-1C26,42.3,25.6,41.8,25,41.8z"/>
					</g>
					<g id="_196442280">
						<path class="st0" d="M25,41.5c-0.3,0-0.5-0.2-0.5-0.5v-2.1c0-0.3,0.2-0.5,0.5-0.5c0.3,0,0.5,0.2,0.5,0.5V41
							C25.5,41.3,25.3,41.5,25,41.5z"/>
					</g>
				</g>
				<g id="_196441728">
					<path class="st0" d="M30.2,28.6H19.8c-1.3,0-2.3-1-2.3-2.3V12.7c0-1.3,1-2.3,2.3-2.3h10.5c1.3,0,2.3,1,2.3,2.3v13.6
						C32.5,27.6,31.5,28.6,30.2,28.6z M19.8,11.5c-0.7,0-1.3,0.6-1.3,1.3v13.6c0,0.7,0.6,1.3,1.3,1.3h10.5c0.7,0,1.3-0.6,1.3-1.3
						V12.7c0-0.7-0.6-1.3-1.3-1.3H19.8z"/>
				</g>
				<g id="_196441896">
					<path class="st0" d="M33.3,32.2H16.7c-0.8,0-1.4-0.6-1.4-1.4v-4.1c0-0.8,0.6-1.4,1.4-1.4H18c0.3,0,0.5,0.2,0.5,0.5v0.6
						c0,0.7,0.6,1.3,1.3,1.3h10.5c0.7,0,1.3-0.6,1.3-1.3v-0.6c0-0.3,0.2-0.5,0.5-0.5h1.3c0.8,0,1.4,0.6,1.4,1.4v4.1
						C34.8,31.5,34.1,32.2,33.3,32.2L33.3,32.2z M16.7,26.2c-0.2,0-0.4,0.2-0.4,0.4v4.1c0,0.2,0.2,0.4,0.4,0.4h16.6
						c0.2,0,0.4-0.2,0.4-0.4v-4.1c0-0.2-0.2-0.4-0.4-0.4h-0.8v0.1c0,1.3-1,2.3-2.3,2.3H19.8c-1.3,0-2.3-1-2.3-2.3v-0.1H16.7z"/>
				</g>
			</g>
			<g id="_196441944">
				<path class="st0" d="M46.1,27.3H34.2c-0.3,0-0.5-0.2-0.5-0.5v-0.2c0-0.2-0.2-0.4-0.4-0.4H32c-0.3,0-0.5-0.2-0.5-0.5v-3.5
					c0-0.3,0.2-0.5,0.5-0.5h14.1c0.8,0,1.4,0.6,1.4,1.4V26C47.5,26.7,46.9,27.3,46.1,27.3z M34.7,26.3h11.4c0.2,0,0.3-0.1,0.3-0.3
					v-2.9c0-0.2-0.1-0.3-0.3-0.3H32.5v2.4h0.8C34,25.2,34.6,25.7,34.7,26.3L34.7,26.3z M15.8,27.3H3.9c-0.8,0-1.4-0.6-1.4-1.4v-2.9
					c0-0.8,0.6-1.4,1.4-1.4H18c0.3,0,0.5,0.2,0.5,0.5v3.5c0,0.3-0.2,0.5-0.5,0.5h-1.3c-0.2,0-0.4,0.2-0.4,0.4v0.2
					C16.3,27.1,16,27.3,15.8,27.3L15.8,27.3z M3.9,22.8c-0.2,0-0.3,0.1-0.3,0.3V26c0,0.2,0.1,0.3,0.3,0.3h11.4
					c0.2-0.6,0.7-1.1,1.4-1.1h0.8v-2.4L3.9,22.8z"/>
			</g>
			<g id="_196442544">
				<path class="st0" d="M46.1,44.9h-3c-0.3,0-0.5-0.2-0.5-0.5v-14h-8.3c-0.3,0-0.5-0.2-0.5-0.5v-3c0-0.3,0.2-0.5,0.5-0.5h11.9
					c0.3,0,0.5,0.2,0.5,0.5v17.6C46.7,44.7,46.4,44.9,46.1,44.9z M43.6,43.9h2V27.3H34.8v2h8.3c0.3,0,0.5,0.2,0.5,0.5L43.6,43.9z
					 M6.9,44.9h-3c-0.3,0-0.5-0.2-0.5-0.5V26.8c0-0.3,0.2-0.5,0.5-0.5h11.9c0.3,0,0.5,0.2,0.5,0.5v3c0,0.3-0.2,0.5-0.5,0.5H7.4v14
					C7.4,44.7,7.2,44.9,6.9,44.9L6.9,44.9z M4.4,43.9h2v-14c0-0.3,0.2-0.5,0.5-0.5h8.3v-2H4.4L4.4,43.9z"/>
			</g>
		</g>
	</g>
</g>
</svg>
