<?xml version="1.0" encoding="utf-8"?>
<!-- Generator: Adobe Illustrator 26.3.1, SVG Export Plug-In . SVG Version: 6.00 Build 0)  -->
<svg version="1.0" id="Layer_1" xmlns="http://www.w3.org/2000/svg" xmlns:xlink="http://www.w3.org/1999/xlink" x="0px" y="0px"
	 viewBox="0 0 50 50" style="enable-background:new 0 0 50 50;" xml:space="preserve">
<style type="text/css">
	.st0{fill:#010101;}
</style>
<g>
	<path class="st0" d="M46.42,32.31h-2.91l-0.78-23.7c-0.04-1.08-0.91-1.93-1.99-1.93c-1.08,0-1.96,0.85-1.99,1.93l-0.78,23.7h-5.1
		c-0.39,0-0.7,0.32-0.7,0.7c0,0.39,0.32,0.7,0.7,0.7h13.56c0.65,0,1.17,0.53,1.17,1.17v5.85c0,0.65-0.53,1.17-1.17,1.17H16.84
		c-0.39,0-0.7,0.32-0.7,0.7c0,0.39,0.32,0.7,0.7,0.7h29.58c1.42,0,2.58-1.16,2.58-2.58v-5.85C49,33.47,47.84,32.31,46.42,32.31
		L46.42,32.31z M40.15,8.65c0.01-0.32,0.27-0.57,0.59-0.57c0.32,0,0.57,0.25,0.59,0.57l0.78,23.66h-2.73L40.15,8.65z"/>
	<path class="st0" d="M14.02,41.91H3.58c-0.65,0-1.17-0.53-1.17-1.17v-5.85c0-0.65,0.53-1.17,1.17-1.17h26.46
		c0.39,0,0.7-0.32,0.7-0.7c0-0.39-0.32-0.7-0.7-0.7h-18l-0.78-23.7c-0.04-1.08-0.91-1.93-1.99-1.93c-1.08,0-1.96,0.85-1.99,1.93
		L6.92,19.39c-0.01,0.39,0.29,0.71,0.68,0.73c0.39,0.01,0.71-0.29,0.73-0.68L8.68,8.65c0.01-0.32,0.27-0.57,0.59-0.57
		c0.32,0,0.57,0.25,0.59,0.57l0.78,23.66H7.9l0.33-10.06c0.01-0.39-0.29-0.71-0.68-0.73c-0.39-0.01-0.71,0.29-0.73,0.68l-0.33,10.1
		H3.58C2.16,32.31,1,33.47,1,34.89v5.85c0,1.42,1.16,2.58,2.58,2.58h10.44c0.39,0,0.7-0.32,0.7-0.7S14.41,41.91,14.02,41.91
		L14.02,41.91z"/>
	<path class="st0" d="M6.46,38.61c-0.39,0-0.7,0.32-0.7,0.7c0,0.39,0.32,0.7,0.7,0.7h2.25c0.39,0,0.7-0.32,0.7-0.7
		c0-0.39-0.32-0.7-0.7-0.7H6.46z"/>
	<path class="st0" d="M14.02,38.61h-2.25c-0.39,0-0.7,0.32-0.7,0.7c0,0.39,0.32,0.7,0.7,0.7h2.25c0.39,0,0.7-0.32,0.7-0.7
		C14.73,38.93,14.41,38.61,14.02,38.61z"/>
	<path class="st0" d="M17.09,38.61c-0.39,0-0.7,0.32-0.7,0.7c0,0.39,0.32,0.7,0.7,0.7h2.25c0.39,0,0.7-0.32,0.7-0.7
		c0-0.39-0.32-0.7-0.7-0.7H17.09z"/>
	<path class="st0" d="M22.4,38.61c-0.39,0-0.7,0.32-0.7,0.7c0,0.39,0.32,0.7,0.7,0.7h2.25c0.39,0,0.7-0.32,0.7-0.7
		c0-0.39-0.32-0.7-0.7-0.7H22.4z"/>
	<path class="st0" d="M38.33,40.02c0.39,0,0.7-0.32,0.7-0.7s-0.32-0.7-0.7-0.7h-2.25c-0.39,0-0.7,0.32-0.7,0.7s0.32,0.7,0.7,0.7
		H38.33z"/>
	<path class="st0" d="M43.57,40.02c0.39,0,0.7-0.32,0.7-0.7s-0.32-0.7-0.7-0.7h-2.25c-0.39,0-0.7,0.32-0.7,0.7s0.32,0.7,0.7,0.7
		H43.57z"/>
	<path class="st0" d="M16.38,18.26c4.76-4.76,12.49-4.76,17.25,0c0.14,0.14,0.32,0.21,0.5,0.21c0.18,0,0.36-0.07,0.5-0.21
		c0.28-0.28,0.28-0.72,0-1c-5.31-5.31-13.94-5.31-19.24,0c-0.28,0.28-0.28,0.72,0,1C15.65,18.54,16.1,18.54,16.38,18.26L16.38,18.26
		z"/>
	<path class="st0" d="M31.95,20.93c0.28-0.28,0.28-0.72,0-1c-3.83-3.83-10.05-3.83-13.89-0.01c-0.22,0.21-0.29,0.54-0.14,0.83
		c0.12,0.25,0.37,0.39,0.63,0.39c0.11,0,0.21-0.02,0.31-0.07c0.07-0.04,0.13-0.08,0.19-0.14c3.28-3.28,8.62-3.28,11.9,0
		C31.23,21.21,31.67,21.21,31.95,20.93z"/>
	<path class="st0" d="M28.83,23.76c0.18,0,0.36-0.07,0.5-0.21c0.28-0.28,0.28-0.72,0-1c-1.16-1.16-2.69-1.79-4.33-1.79
		c-1.63,0-3.17,0.64-4.33,1.79c-0.28,0.28-0.28,0.72,0,1c0.28,0.28,0.72,0.28,1,0c0.89-0.89,2.07-1.38,3.33-1.38
		c1.26,0,2.44,0.49,3.33,1.38C28.47,23.69,28.65,23.76,28.83,23.76z"/>
	<path class="st0" d="M22.97,24.85c-0.13,0.13-0.21,0.31-0.21,0.5c-0.01,0.62,0.78,0.94,1.21,0.49c0.28-0.27,0.64-0.43,1.03-0.43
		c0.39,0,0.76,0.15,1.04,0.43c0.68,0.64,1.63-0.31,1-1C25.91,23.73,24.09,23.73,22.97,24.85L22.97,24.85z"/>
</g>
</svg>
