<?xml version="1.0" encoding="utf-8"?>
<!-- Generator: Adobe Illustrator 26.3.1, SVG Export Plug-In . SVG Version: 6.00 Build 0)  -->
<svg version="1.1" id="Layer_1" xmlns="http://www.w3.org/2000/svg" xmlns:xlink="http://www.w3.org/1999/xlink" x="0px" y="0px"
	 viewBox="0 0 50 50" style="enable-background:new 0 0 50 50;" xml:space="preserve">
<g>
	<path d="M44.5,15.6H5.5c-1.6,0-3,1.3-3,3v15.1c0,0.4,0.3,0.7,0.7,0.7h43.5c0.4,0,0.7-0.3,0.7-0.7V18.6
		C47.5,16.9,46.2,15.6,44.5,15.6L44.5,15.6z M5.7,17.1h38.6V18c0,0.5-0.4,0.9-0.9,0.9H6.6c-0.5,0-0.9-0.4-0.9-0.9L5.7,17.1L5.7,17.1
		z M44.3,29.2H5.7v-0.1c0-0.5,0.4-0.9,0.9-0.9h36.8C43.9,28.2,44.3,28.6,44.3,29.2L44.3,29.2L44.3,29.2z M5.7,30.2h38.6v1H5.7V30.2z
		 M5.7,32.2h38.6v0.7H5.7V32.2z M46,32.9h-0.7v-3.8c0-1-0.8-1.9-1.9-1.9H6.6c-1,0-1.9,0.8-1.9,1.9v3.8H4V18.6c0-0.5,0.3-1,0.7-1.3
		V18c0,1,0.8,1.9,1.9,1.9h36.8c1,0,1.9-0.8,1.9-1.9v-0.7c0.4,0.3,0.7,0.7,0.7,1.3V32.9z"/>
	<path d="M27.3,25.2h-4.5c-0.3,0-0.5,0.2-0.5,0.5c0,0.3,0.2,0.5,0.5,0.5h4.5c0.3,0,0.5-0.2,0.5-0.5C27.8,25.5,27.5,25.2,27.3,25.2z"
		/>
	<path d="M42.2,25.2c-0.1,0-0.3,0.1-0.4,0.1s-0.1,0.2-0.1,0.4s0.1,0.3,0.1,0.3c0.1,0.1,0.2,0.1,0.4,0.1c0.1,0,0.3-0.1,0.3-0.1
		c0.1-0.1,0.1-0.2,0.1-0.3s-0.1-0.3-0.1-0.4C42.5,25.3,42.3,25.2,42.2,25.2z"/>
	<path d="M39.9,25.2c-0.1,0-0.3,0.1-0.4,0.1s-0.1,0.2-0.1,0.4s0.1,0.3,0.1,0.3s0.2,0.1,0.4,0.1c0.1,0,0.3-0.1,0.3-0.1
		c0.1-0.1,0.1-0.2,0.1-0.3c0-0.1-0.1-0.3-0.1-0.4C40.2,25.3,40.1,25.2,39.9,25.2z"/>
</g>
</svg>
