<?xml version="1.0" encoding="utf-8"?>
<!-- Generator: Adobe Illustrator 26.3.1, SVG Export Plug-In . SVG Version: 6.00 Build 0)  -->
<svg version="1.0" id="Layer_1" xmlns="http://www.w3.org/2000/svg" xmlns:xlink="http://www.w3.org/1999/xlink" x="0px" y="0px"
	 viewBox="0 0 50 50" style="enable-background:new 0 0 50 50;" xml:space="preserve">
<style type="text/css">
	.st0{fill:#010101;}
</style>
<g id="Layer_x0020_1">
	<path class="st0" d="M36.71,13.41h-2.83c-0.24,0-0.43-0.19-0.43-0.42c0-0.24,0.19-0.42,0.43-0.42h1.8c-0.4-0.5-0.59-1-0.59-1.51
		c0-0.49,0.19-0.96,0.57-1.42H25.47v3.36c0,0.23-0.19,0.42-0.42,0.42c-0.24,0-0.43-0.19-0.43-0.42V9.2c0-0.23,0.19-0.42,0.43-0.42
		h11.66c0.18,0,0.34,0.11,0.4,0.29c0.06,0.17,0,0.36-0.14,0.47c-0.68,0.53-1.02,1.04-1.03,1.52c0,0.5,0.34,1.03,1.04,1.6
		c0.14,0.11,0.19,0.3,0.13,0.47C37.05,13.29,36.89,13.41,36.71,13.41L36.71,13.41z"/>
	<path class="st0" d="M33.88,17.19c-0.1,0-0.19-0.03-0.27-0.1c-0.91-0.73-1.36-1.5-1.35-2.27c0-0.49,0.19-0.96,0.57-1.43H22.64v2.94
		h2.41c0.23,0,0.42,0.19,0.42,0.42c0,0.23-0.19,0.42-0.42,0.42h-2.83c-0.24,0-0.43-0.19-0.43-0.42v-3.79c0-0.24,0.19-0.42,0.43-0.42
		h11.66c0.18,0,0.34,0.11,0.4,0.29c0.06,0.17,0,0.36-0.14,0.47c-0.68,0.53-1.02,1.04-1.03,1.52c0,0.5,0.34,1.03,1.04,1.6
		c0.18,0.15,0.21,0.41,0.06,0.6C34.13,17.14,34,17.19,33.88,17.19L33.88,17.19z"/>
	<path class="st0" d="M36.71,20.98c-0.1,0-0.19-0.03-0.27-0.1c-0.91-0.73-1.36-1.5-1.35-2.27c0-0.49,0.19-0.96,0.57-1.43H25.47v3.36
		c0,0.23-0.19,0.42-0.42,0.42c-0.24,0-0.43-0.19-0.43-0.42v-3.79c0-0.23,0.19-0.42,0.43-0.42h11.66c0.18,0,0.34,0.11,0.4,0.29
		c0.06,0.17,0,0.36-0.14,0.47c-0.68,0.53-1.02,1.04-1.03,1.52c0,0.5,0.34,1.03,1.04,1.6c0.18,0.15,0.21,0.42,0.06,0.6
		C36.96,20.93,36.83,20.98,36.71,20.98L36.71,20.98z"/>
	<path class="st0" d="M44.91,31.95H31.04c-0.24,0-0.43-0.19-0.43-0.42v-8.1c0-0.23,0.19-0.42,0.43-0.42c0.23,0,0.42,0.19,0.42,0.42
		v7.68h13.45c0.23,0,0.43,0.19,0.43,0.42C45.34,31.76,45.14,31.95,44.91,31.95L44.91,31.95z"/>
	<path class="st0" d="M39.25,27.9h-2.55c-0.24,0-0.43-0.19-0.43-0.42s0.19-0.42,0.43-0.42h2.55c0.24,0,0.43,0.19,0.43,0.42
		S39.49,27.9,39.25,27.9z"/>
	<path class="st0" d="M44.91,40.05H31.04c-0.24,0-0.43-0.19-0.43-0.42v-8.1c0-0.23,0.19-0.42,0.43-0.42c0.23,0,0.42,0.19,0.42,0.42
		v7.68h13.45c0.23,0,0.43,0.19,0.43,0.42C45.34,39.86,45.14,40.05,44.91,40.05L44.91,40.05z"/>
	<path class="st0" d="M39.25,36h-2.55c-0.24,0-0.43-0.19-0.43-0.42c0-0.23,0.19-0.42,0.43-0.42h2.55c0.24,0,0.43,0.19,0.43,0.42
		C39.68,35.81,39.49,36,39.25,36z"/>
	<path class="st0" d="M44.63,20.98c-0.02,0-0.04,0-0.06,0c-0.23-0.03-0.4-0.25-0.36-0.48l0.51-3.69h-2.79l0.51,3.69
		c0.03,0.23-0.13,0.45-0.37,0.48c-0.23,0.03-0.44-0.13-0.47-0.36l-0.57-4.17c-0.02-0.12,0.02-0.24,0.1-0.34
		c0.08-0.09,0.2-0.15,0.32-0.15h3.77c0.12,0,0.24,0.05,0.32,0.15c0.08,0.09,0.11,0.22,0.1,0.34l-0.58,4.17
		C45.02,20.82,44.83,20.98,44.63,20.98L44.63,20.98z"/>
	<path class="st0" d="M42.51,16.81c-0.15,0-0.29-0.08-0.36-0.21l-1.35-2.35c-0.12-0.2-0.05-0.46,0.15-0.58
		c0.2-0.12,0.46-0.05,0.58,0.15l1.35,2.35c0.11,0.2,0.05,0.46-0.15,0.58C42.65,16.79,42.58,16.81,42.51,16.81L42.51,16.81z"/>
	<path class="st0" d="M43.59,16.81c-0.08,0-0.16-0.02-0.23-0.07c-0.2-0.13-0.26-0.39-0.13-0.58l1.22-1.94
		c0.13-0.2,0.39-0.26,0.58-0.13c0.2,0.12,0.26,0.39,0.14,0.58l-1.22,1.94C43.87,16.74,43.73,16.81,43.59,16.81L43.59,16.81z"/>
	<path class="st0" d="M14.88,20.98c-0.23,0-0.43-0.19-0.43-0.42c0-1.25-0.24-1.65-0.98-1.65H7.5c-0.74,0-0.98,0.4-0.98,1.65
		c0,0.24-0.19,0.42-0.42,0.42c-0.24,0-0.43-0.19-0.43-0.42c0-0.68,0-2.5,1.83-2.5h5.97c1.83,0,1.83,1.82,1.83,2.5
		C15.3,20.79,15.12,20.98,14.88,20.98L14.88,20.98z"/>
	<path class="st0" d="M9.62,18.9c-0.23,0-0.42-0.19-0.42-0.42v-6.56c0-0.23,0.19-0.42,0.42-0.42c0.24,0,0.43,0.19,0.43,0.42v6.56
		C10.05,18.71,9.86,18.9,9.62,18.9z M11.35,18.9c-0.23,0-0.43-0.19-0.43-0.42v-6.56c0-0.23,0.19-0.42,0.43-0.42
		c0.24,0,0.43,0.19,0.43,0.42v6.56C11.78,18.71,11.59,18.9,11.35,18.9z"/>
	<path class="st0" d="M4.64,11.49h11.72l-2.28-7.6H6.92L4.64,11.49z M16.93,12.34H4.07c-0.13,0-0.26-0.06-0.34-0.17
		c-0.08-0.11-0.11-0.25-0.07-0.38L6.2,3.34c0.05-0.18,0.22-0.3,0.4-0.3h7.78c0.19,0,0.36,0.12,0.41,0.3l2.54,8.45
		c0.04,0.13,0.01,0.27-0.07,0.38C17.19,12.28,17.06,12.34,16.93,12.34L16.93,12.34z"/>
	<path class="st0" d="M1.75,23h46.7v-2.02H1.75L1.75,23L1.75,23z M48.88,23.85H1.33c-0.23,0-0.43-0.19-0.43-0.43v-2.87
		c0-0.23,0.19-0.42,0.43-0.42h47.55c0.24,0,0.43,0.19,0.43,0.42v2.87C49.3,23.66,49.11,23.85,48.88,23.85z"/>
	<path class="st0" d="M5.3,46.96H3.26c-0.23,0-0.42-0.19-0.42-0.42V23.43c0-0.23,0.19-0.42,0.42-0.42c0.24,0,0.43,0.19,0.43,0.42
		v22.69h1.18V23.43C4.87,23.19,5.06,23,5.3,23c0.23,0,0.42,0.19,0.42,0.42v23.11C5.72,46.77,5.53,46.96,5.3,46.96z"/>
	<path class="st0" d="M46.94,46.96h-2.03c-0.24,0-0.43-0.19-0.43-0.42V23.43c0-0.23,0.19-0.42,0.43-0.42c0.23,0,0.43,0.19,0.43,0.42
		v22.69h1.18V23.43c0-0.23,0.19-0.42,0.42-0.42c0.24,0,0.43,0.19,0.43,0.42v23.11C47.37,46.77,47.18,46.96,46.94,46.96z"/>
</g>
</svg>
