<?xml version="1.0" encoding="utf-8"?>
<!-- Generator: Adobe Illustrator 26.3.1, SVG Export Plug-In . SVG Version: 6.00 Build 0)  -->
<svg version="1.1" id="Layer_1" xmlns="http://www.w3.org/2000/svg" xmlns:xlink="http://www.w3.org/1999/xlink" x="0px" y="0px"
	 viewBox="0 0 50 50" style="enable-background:new 0 0 50 50;" xml:space="preserve">
<g>
	<path d="M43.1,24.1c2.4,0,4.4-2,4.4-4.4V6.9c0-2.4-2-4.4-4.4-4.4H30.3c-2.4,0-4.4,2-4.4,4.4v12.8c0,2.4,2,4.4,4.4,4.4H36v22H23.7
		l-1.4-3.8c1.1-0.8,1.8-2.2,1.8-3.6v-3.2c0-0.2,0-0.5-0.1-0.7c-0.1-0.4-0.4-0.6-0.8-0.6c-0.4,0.1-0.6,0.4-0.6,0.8c0,0.2,0,0.3,0,0.5
		v3.2c0,1.8-1.5,3.3-3.3,3.3h-0.2c0.8-0.8,1.4-2,1.4-3.3v-6.3c0.4,0.1,0.8,0.4,1.1,0.7c0.1,0.1,0.3,0.2,0.4,0.2
		c0.2,0,0.4-0.1,0.5-0.2c0.2-0.3,0.2-0.7,0-0.9c-0.6-0.5-1.2-0.9-2-1.1c0-1.8-0.9-3.5-2.3-4.7c0-0.2,0.1-0.5,0.1-0.8
		c0-0.5-0.1-0.9-0.2-1.3l1.3-1.5h0.3v0.6c0,0.4,0.3,0.7,0.7,0.7s0.7-0.3,0.7-0.7v-0.6h1.9c1.1,0,2-0.9,2-2c0-0.5-0.2-1-0.6-1.4
		c-0.4-0.4-0.9-0.6-1.4-0.6h-1.9v-0.3c0-0.4-0.3-0.7-0.7-0.7c-0.4,0-0.7,0.3-0.7,0.7v0.3h-0.6v-2.4l0.5-0.5c0.5,0.3,1,0.5,1.6,0.5
		c1.7,0,3.1-1.4,3.1-3.1s-1.4-3.1-3.1-3.1s-3.1,1.4-3.1,3.1c0,0.6,0.2,1.2,0.5,1.6l-0.7,0.7C18.1,15.9,18,16,18,16.2V19
		c-0.3,0.1-0.6,0.3-0.8,0.6l-1.9,2.2c-0.3-0.1-0.6-0.1-0.8-0.1c-0.3,0-0.6,0-0.8,0.1l-1.9-2.2c-0.2-0.3-0.5-0.4-0.8-0.6v-2.8
		c0-0.2-0.1-0.3-0.2-0.5L10,15.1c0.3-0.5,0.5-1,0.5-1.6c0-1.7-1.4-3.1-3.1-3.1s-3.1,1.4-3.1,3.1s1.4,3.1,3.1,3.1
		C8,16.5,8.6,16.3,9,16l0.5,0.5v2.4H8.9v-0.3c0-0.4-0.3-0.7-0.7-0.7c-0.4,0-0.7,0.3-0.7,0.7v0.3H5.8c-1.1,0-2,0.9-2,2
		c0,0.5,0.2,1,0.6,1.4c0.4,0.4,0.9,0.6,1.4,0.6h1.9v0.6c0,0.4,0.3,0.7,0.7,0.7c0.4,0,0.7-0.3,0.7-0.7v-0.6h0.3l1.3,1.5
		c-0.1,0.4-0.2,0.9-0.2,1.3c0,0.3,0,0.5,0.1,0.8c-1.4,1.2-2.2,2.9-2.3,4.7c-2,0.5-3.4,2.3-3.4,4.4v3.2c0,2.5,2.1,4.6,4.6,4.6h2.2
		v1.2c0,0.6,0.2,1.1,0.5,1.6H3.2c-0.4,0-0.7,0.3-0.7,0.7s0.3,0.7,0.7,0.7h41c0.4,0,0.7-0.3,0.7-0.7s-0.3-0.7-0.7-0.7h-6.8v-22
		L43.1,24.1z M23.1,20.2c0.2,0,0.3,0.1,0.5,0.2c0.1,0.1,0.2,0.3,0.2,0.5c0,0.4-0.3,0.7-0.7,0.7h-1.9v-1.3H23.1z M21.4,11.7
		c1,0,1.7,0.8,1.7,1.7s-0.8,1.7-1.7,1.7s-1.7-0.8-1.7-1.7S20.5,11.7,21.4,11.7z M18.2,20.4c0.1-0.1,0.3-0.2,0.5-0.2h1.2v1.3h-0.6
		c-0.2,0-0.4,0.1-0.5,0.2l-1.2,1.4c-0.3-0.3-0.6-0.6-1-0.9L18.2,20.4z M17.1,25.7c0,1.5-1.2,2.7-2.7,2.7c-1.5,0-2.7-1.2-2.7-2.7
		c0-1.5,1.2-2.7,2.7-2.7C15.9,22.9,17.1,24.2,17.1,25.7z M7.4,15.2c-1,0-1.7-0.8-1.7-1.7s0.8-1.7,1.7-1.7s1.7,0.8,1.7,1.7
		S8.3,15.2,7.4,15.2z M5.8,21.5c-0.2,0-0.3-0.1-0.5-0.2c-0.1-0.1-0.2-0.3-0.2-0.5c0-0.4,0.3-0.7,0.7-0.7h1.9v1.3H5.8z M10.1,21.7
		c-0.1-0.1-0.3-0.2-0.5-0.2H8.9v-1.3h1.2c0.2,0,0.4,0.1,0.5,0.2l1.6,1.8c-0.4,0.2-0.7,0.5-1,0.9L10.1,21.7z M9.5,31.2
		c0-1.3,0.5-2.6,1.4-3.5c0.7,1.2,2,1.9,3.5,1.9c1.5,0,2.7-0.8,3.5-1.9c0.9,0.9,1.4,2.2,1.4,3.5v7.6c0,1.3-0.8,2.5-2,3v-4.5
		c0-1.6-1.3-2.9-2.9-2.9c-1.6,0-2.9,1.3-2.9,2.9v4.5c-1.2-0.5-2-1.7-2-3L9.5,31.2L9.5,31.2z M16,37.4v7.3c0,0.9-0.7,1.6-1.6,1.6
		c-0.9,0-1.6-0.7-1.6-1.6v-7.3c0-0.9,0.7-1.6,1.6-1.6S16,36.5,16,37.4z M6.1,38.8v-3.2c0-1.4,0.9-2.6,2.1-3.1v6.3
		c0,1.3,0.5,2.4,1.4,3.3H9.4C7.6,42.1,6.1,40.6,6.1,38.8z M17.3,44.6v-1.2h2.2c0.6,0,1.2-0.1,1.7-0.3l1.1,3.1h-5.4
		C17.1,45.7,17.3,45.2,17.3,44.6z M27.2,19.7V6.9c0-1.7,1.4-3.1,3.1-3.1h12.8c1.7,0,3.1,1.4,3.1,3.1v12.8c0,1.7-1.4,3.1-3.1,3.1
		H30.3C28.6,22.8,27.2,21.4,27.2,19.7L27.2,19.7z"/>
	<path d="M37.5,5h-3.7c-0.4,0-0.8,0.1-1.1,0.2c-0.9,0.4-1.4,1.3-1.4,2.2v12.2c0,1.1,0.9,2,2,2h0.9c1.1,0,2-0.9,2-2v-2.1
		c0.5,0,1,0,1.3,0c3.5,0,6.3-2.8,6.3-6.3S41,5,37.5,5L37.5,5z M37.5,16.2c-0.5,0-1.3,0-2,0c-0.4,0-0.7,0.3-0.7,0.7v2.8
		c0,0.4-0.3,0.6-0.6,0.6h-0.9c-0.4,0-0.6-0.3-0.6-0.6V7.4c0-0.4,0.2-0.8,0.6-1c0.1-0.1,0.3-0.1,0.5-0.1h3.7c2.8,0,5,2.2,5,4.9
		S40.2,16.2,37.5,16.2L37.5,16.2z"/>
	<path d="M37.5,8.6h-2c-0.2,0-0.3,0.1-0.5,0.2S34.8,9,34.8,9.2c0,0.8,0,3.3,0,4.1c0,0.2,0.1,0.3,0.2,0.5c0.1,0.1,0.3,0.2,0.5,0.2h0
		c0.7,0,1.5,0,2,0c1.5,0,2.8-1.2,2.8-2.7S39,8.6,37.5,8.6z M37.5,12.6c-0.3,0-0.8,0-1.3,0c0-0.5,0-2.2,0-2.8h1.3
		c0.8,0,1.5,0.6,1.5,1.4C38.9,12,38.3,12.6,37.5,12.6z"/>
	<path d="M46.8,46.2h-3.1c-0.4,0-0.7,0.3-0.7,0.7c0,0.4,0.3,0.7,0.7,0.7h3.1c0.4,0,0.7-0.3,0.7-0.7C47.5,46.5,47.2,46.2,46.8,46.2z"
		/>
	<path d="M17.2,34.2c1.1,0,1.9-0.9,1.9-1.9c0-1.1-0.9-1.9-1.9-1.9s-1.9,0.9-1.9,1.9C15.3,33.3,16.1,34.2,17.2,34.2z M17.2,31.6
		c0.3,0,0.6,0.3,0.6,0.6c0,0.3-0.3,0.6-0.6,0.6c-0.3,0-0.6-0.3-0.6-0.6C16.6,31.9,16.9,31.6,17.2,31.6z"/>
	<path d="M13.5,32.2c0-1.1-0.9-1.9-1.9-1.9s-1.9,0.9-1.9,1.9c0,1.1,0.9,1.9,1.9,1.9S13.5,33.3,13.5,32.2z M11,32.2
		c0-0.3,0.3-0.6,0.6-0.6s0.6,0.3,0.6,0.6c0,0.3-0.3,0.6-0.6,0.6S11,32.6,11,32.2z"/>
</g>
</svg>
