<?xml version="1.0" encoding="utf-8"?>
<!-- Generator: Adobe Illustrator 26.3.1, SVG Export Plug-In . SVG Version: 6.00 Build 0)  -->
<svg version="1.1" id="Layer_1" xmlns="http://www.w3.org/2000/svg" xmlns:xlink="http://www.w3.org/1999/xlink" x="0px" y="0px"
	 viewBox="0 0 50 50" style="enable-background:new 0 0 50 50;" xml:space="preserve">
<g>
	<path d="M39.3,18.5c0-1.2-1-2.2-2.2-2.2h-2.6c-0.2,0-0.4,0-0.7,0.1c-0.2-3-0.5-6-1.2-9.5c-0.2-1.3-1.3-2.3-2.6-2.5
		c0-0.4-0.2-0.9-0.5-1.2c-0.4-0.5-1-0.7-1.6-0.7h-6.2c-0.6,0-1.2,0.3-1.6,0.7C20,3.6,19.9,4,19.8,4.4c-1.3,0.2-2.4,1.1-2.6,2.5
		c-0.6,3.5-1,6.5-1.2,9.5c-0.2-0.1-0.4-0.1-0.7-0.1h-2.6c-1.2,0-2.2,1-2.2,2.2c0,1.2,1,2.2,2.2,2.2h0.5l-1,4.7
		c-0.1,0.7,0,1.3,0.4,1.9c0.3,0.4,0.8,0.7,1.3,0.8c0.1,1,0.9,1.7,1.8,1.7h5.3c0.5,0.8,1.2,1.5,2.1,1.9v5.9c-0.4,0.2-0.7,0.6-0.7,1.1
		v1.8l-5.1,1.5c-0.8,0.2-1.3,1-1.2,1.8c-0.5,0.4-0.8,1-0.8,1.7c0,1.2,1,2.2,2.2,2.2c1.2,0,2.2-1,2.2-2.2c0-0.2,0-0.5-0.1-0.7
		l3.7-1.1c0,0.1,0,0.2,0,0.3c-0.4,0.4-0.6,0.9-0.6,1.5c0,1.2,1,2.2,2.2,2.2c1.2,0,2.2-1,2.2-2.2c0-0.6-0.2-1.1-0.6-1.5
		c0-0.1,0-0.2,0-0.3l3.7,1.1c-0.1,0.2-0.1,0.4-0.1,0.7c0,1.2,1,2.2,2.2,2.2c1.2,0,2.2-1,2.2-2.2c0-0.7-0.3-1.3-0.8-1.7
		c0.1-0.8-0.4-1.5-1.2-1.8l-5.1-1.5v-1.8c0-0.5-0.3-0.9-0.7-1.1v-5.9c0.9-0.4,1.6-1,2.1-1.9h5.3c1,0,1.8-0.8,1.8-1.7
		c0.5-0.1,0.9-0.4,1.3-0.8c0.4-0.5,0.6-1.2,0.4-1.9l-1-4.7h0.5C38.4,20.6,39.3,19.7,39.3,18.5z M37.2,17.6c0.5,0,0.9,0.4,0.9,0.9
		c0,0.5-0.4,0.9-0.9,0.9h-2.6c-0.5,0-0.9-0.4-0.9-0.9c0-0.5,0.4-0.9,0.9-0.9H37.2z M12,18.5c0-0.5,0.4-0.9,0.9-0.9h2.6
		c0.5,0,0.9,0.4,0.9,0.9c0,0.5-0.4,0.9-0.9,0.9h-2.6C12.4,19.3,12,18.9,12,18.5z M13.7,26.4c-0.2-0.2-0.2-0.5-0.2-0.8l1.1-5h0.8
		c0.2,0,0.4,0,0.5-0.1c0,1.2,0.1,2.4,0.1,3.6c-1.2,0.2-2.1,1.2-2.1,2.4C13.9,26.6,13.8,26.5,13.7,26.4z M17.5,46.2
		c-0.5,0-0.9-0.4-0.9-0.9c0-0.5,0.4-0.9,0.9-0.9c0.5,0,0.9,0.4,0.9,0.9C18.4,45.8,18,46.2,17.5,46.2z M25,46.2
		c-0.5,0-0.9-0.4-0.9-0.9c0-0.5,0.4-0.9,0.9-0.9c0.5,0,0.9,0.4,0.9,0.9C25.9,45.8,25.5,46.2,25,46.2z M32.5,46.2
		c-0.5,0-0.9-0.4-0.9-0.9c0-0.5,0.4-0.9,0.9-0.9c0.5,0,0.9,0.4,0.9,0.9C33.3,45.8,32.9,46.2,32.5,46.2z M32.3,43.1
		C32.3,43.1,32.3,43.1,32.3,43.1c-0.3,0-0.7,0.2-1,0.4L26.2,42c-0.2-0.1-0.4,0-0.6,0.1c-0.2,0.1-0.3,0.3-0.3,0.5v0.5
		c-0.1,0-0.2,0-0.3,0c-0.1,0-0.2,0-0.3,0v-0.5c0-0.2-0.1-0.4-0.3-0.5C24.2,42,24,42,23.8,42l-5.1,1.5c-0.3-0.2-0.7-0.3-1.1-0.4
		c0,0,0,0,0.1,0l5.6-1.6c0.3-0.1,0.5-0.3,0.5-0.6v-2.2h2.5v2.2c0,0.3,0.2,0.6,0.5,0.6L32.3,43.1z M25.5,37.4h-1.1V32
		c0.2,0,0.4,0,0.5,0c0.2,0,0.4,0,0.5,0V37.4z M25,30.7c-0.9,0-1.7-0.3-2.3-0.9h4.5C26.7,30.3,25.9,30.7,25,30.7z M34.2,28.4h-5.7h-7
		h-5.7c-0.3,0-0.5-0.2-0.5-0.5v-0.5c0,0,0,0,0,0s0,0,0,0v-0.7c0-0.7,0.6-1.3,1.3-1.3h3.6c0.4,0,0.7-0.3,0.7-0.7s-0.3-0.7-0.7-0.7
		h-2.7c-0.1-1.5-0.2-3-0.1-4.6c0.2-0.3,0.3-0.7,0.3-1.1c0-0.4-0.1-0.7-0.3-1c0.1-3.2,0.5-6.5,1.2-10.3c0.1-0.7,0.7-1.3,1.5-1.4
		l0.2,1.2c0.3,1.5,1.6,2.6,3.1,2.6h4.2c0.4,0,0.7-0.3,0.7-0.7c0-0.4-0.3-0.7-0.7-0.7h-4.2c-0.9,0-1.6-0.6-1.8-1.5l-0.3-2
		c0-0.2,0-0.4,0.2-0.6c0.1-0.2,0.3-0.3,0.6-0.3h6.2c0.2,0,0.4,0.1,0.6,0.3c0.1,0.2,0.2,0.4,0.2,0.6l-0.3,2c0,0.2-0.1,0.4-0.2,0.6
		c-0.2,0.3-0.1,0.7,0.2,0.9c0.3,0.2,0.7,0.1,0.9-0.2c0.2-0.3,0.3-0.7,0.4-1.1L30,5.8c0.7,0.1,1.3,0.6,1.5,1.4
		c0.7,3.8,1.1,7.1,1.2,10.3c-0.2,0.3-0.3,0.6-0.3,1c0,0.4,0.1,0.8,0.3,1.1c0,1.5,0,3-0.1,4.6H19.8c-0.4,0-0.7,0.3-0.7,0.7
		s0.3,0.7,0.7,0.7h13.6c0.7,0,1.3,0.6,1.3,1.3v0.7c0,0,0,0,0,0s0,0,0,0v0.5C34.7,28.2,34.5,28.4,34.2,28.4z M36.4,25.7
		c0.1,0.3,0,0.5-0.2,0.8c-0.1,0.1-0.1,0.2-0.2,0.2c-0.1-1.2-1-2.2-2.1-2.4C34,23,34,21.8,34,20.6c0.2,0,0.4,0.1,0.5,0.1h0.8
		L36.4,25.7z"/>
	<path d="M22.7,13.6h4.6c0.4,0,0.7-0.3,0.7-0.7c0-0.4-0.3-0.7-0.7-0.7h-4.6c-0.4,0-0.7,0.3-0.7,0.7C22.1,13.3,22.3,13.6,22.7,13.6z"
		/>
	<path d="M29.2,17.5c0-0.4-0.3-0.7-0.7-0.7h-7c-0.4,0-0.7,0.3-0.7,0.7c0,0.4,0.3,0.7,0.7,0.7h7C28.9,18.2,29.2,17.9,29.2,17.5z"/>
</g>
</svg>
