<?xml version="1.0" encoding="utf-8"?>
<!-- Generator: Adobe Illustrator 26.3.1, SVG Export Plug-In . SVG Version: 6.00 Build 0)  -->
<svg version="1.0" id="Layer_1" xmlns="http://www.w3.org/2000/svg" xmlns:xlink="http://www.w3.org/1999/xlink" x="0px" y="0px"
	 viewBox="0 0 50 50" style="enable-background:new 0 0 50 50;" xml:space="preserve">
<style type="text/css">
	.st0{clip-path:url(#SVGID_00000183933676985004489630000003305564974827807369_);}
	.st1{fill:none;stroke:#010101;stroke-width:1.4062;stroke-linecap:round;stroke-linejoin:round;stroke-miterlimit:13.3333;}
</style>
<g id="g1233" transform="matrix(1.3333333,0,0,-1.3333333,0,682.66667)">
	<g id="g1235">
		<g>
			<defs>
				<rect id="SVGID_1_" x="-5.25" y="469.25" width="48" height="48"/>
			</defs>
			<clipPath id="SVGID_00000131366665847006902120000013369321418303974289_">
				<use xlink:href="#SVGID_1_"  style="overflow:visible;"/>
			</clipPath>
			<g id="g1237" style="clip-path:url(#SVGID_00000131366665847006902120000013369321418303974289_);">
				<g id="g1243" transform="translate(274.1396,265.8501)">
					<path id="path1245" class="st1" d="M-254.11,228.09c-0.89,0.36-1.52,1.23-1.52,2.25v7.73c0,3.75,3.04,6.8,6.8,6.8
						c1.88,0,3.58-0.76,4.81-1.99c1.23-1.23,1.99-2.93,1.99-4.81v-7.73c0-1.02-0.63-1.89-1.52-2.25"/>
				</g>
				<g id="g1247" transform="translate(381.9199,298.7598)">
					<path id="path1249" class="st1" d="M-354.32,197.5v-0.77c0-0.52,0.36-0.97,0.87-1.08l4.08-0.9c1.53-0.33,2.61-1.69,2.61-3.25
						v-6.36"/>
				</g>
				<g id="g1251" transform="translate(316.5,298.7598)">
					<path id="path1253" class="st1" d="M-293.5,197.5v-0.77c0-0.52-0.36-0.97-0.87-1.08l-4.08-0.9c-0.65-0.14-1.21-0.47-1.65-0.91"
						/>
				</g>
				<g id="g1255" transform="translate(208.9102,123.02)">
					<path id="path1257" class="st1" d="M-193.47,360.88v5.69"/>
				</g>
				<g id="g1259" transform="translate(290.2881,269.396)">
					<path id="path1261" class="st1" d="M-269.13,224.8c0.96-1.24,2.46-2.03,4.14-2.03c1.69,0,3.18,0.8,4.14,2.03"/>
				</g>
				<g id="g1263" transform="translate(430.3896,123.02)">
					<path id="path1265" class="st1" d="M-399.38,360.88v2.9"/>
				</g>
				<g id="g1267" transform="translate(268.0303,123.02)">
					<path id="path1269" class="st1" d="M-248.43,360.88v2.9"/>
				</g>
				<g id="g1271" transform="translate(430.3877,149.5112)">
					<path id="path1273" class="st1" d="M-399.38,336.25h4.16"/>
				</g>
				<g id="g1275" transform="translate(208.9131,149.5112)">
					<path id="path1277" class="st1" d="M-193.47,336.25h4.16"/>
				</g>
				<g id="g1279" transform="translate(415.876,403.644)">
					<path id="path1281" class="st1" d="M-385.88,99.99c0,0.19-0.16,0.34-0.35,0.33c-0.42-0.02-1.1,0.02-1.79,0.4
						c-0.54,0.29-0.89,0.68-1.1,0.98c-0.11,0.16-0.34,0.18-0.49,0.05c-0.42-0.37-1.04-0.82-1.87-1.14
						c-1.39-0.54-2.65-0.46-3.39-0.33c-0.2,0.03-0.39-0.12-0.39-0.33V96.7c0-2.59,2.1-4.69,4.69-4.69h0c2.59,0,4.69,2.1,4.69,4.69
						V99.99z"/>
				</g>
				<g id="g1283" transform="translate(317.04,379.9951)">
					<path id="path1285" class="st1" d="M-294,121.97v-0.9"/>
				</g>
				<g id="g1287" transform="translate(381.373,379.9951)">
					<path id="path1289" class="st1" d="M-353.81,121.97v-0.9"/>
				</g>
				<g id="g1291" transform="translate(336.3398,329.437)">
					<path id="path1293" class="st1" d="M-311.94,168.98c0.15-0.08,0.46-0.23,0.89-0.23c0.45,0,0.78,0.15,0.92,0.23"/>
				</g>
				<g id="g1295" transform="translate(474.5,67.5)">
					<path id="path1297" class="st1" d="M-440.39,412.5v-4.22"/>
				</g>
				<g id="g1299" transform="translate(37.5,7.5)">
					<path id="path1301" class="st1" d="M-34.11,468.28v4.22"/>
				</g>
				<g id="g1303" transform="translate(385.7588,67.5)">
					<path id="path1305" class="st1" d="M-357.89,412.5h-25.89c-0.39,0-0.7,0.31-0.7,0.7v2.5c0,0.39,0.31,0.7,0.7,0.7h33.54
						c0.39,0,0.7-0.31,0.7-0.7v-2.5c0-0.39-0.31-0.7-0.7-0.7h-5.18"/>
				</g>
				<g id="g1307" transform="translate(60.2773,123.0161)">
					<path id="path1309" class="st1" d="M-55.29,360.88v1.63c0,0.65,0.53,1.18,1.18,1.18h5.33c0.65,0,1.18-0.53,1.18-1.18v-1.63"/>
				</g>
				<g id="g1311" transform="translate(7.5,244.248)">
					<path id="path1313" class="st1" d="M-6.22,248.18v-2.04c0-0.44,0.35-0.79,0.79-0.79h5.36"/>
				</g>
				<g id="g1315" transform="translate(135.1602,203.96)">
					<path id="path1317" class="st1" d="M-124.91,285.63h5.36c0.44,0,0.79,0.35,0.79,0.79v8.72c0,0.44-0.35,0.79-0.79,0.79h-13.54
						c-0.44,0-0.79-0.35-0.79-0.79v-4.22"/>
				</g>
				<g id="g1319" transform="translate(94.877,162.9956)">
					<path id="path1321" class="st1" d="M-87.46,323.72v7.04c0,0.39,0.31,0.7,0.7,0.7h1.43c0.39,0,0.7-0.31,0.7-0.7v-7.04"/>
				</g>
			</g>
		</g>
	</g>
</g>
</svg>
