<?xml version="1.0" encoding="utf-8"?>
<!-- Generator: Adobe Illustrator 26.3.1, SVG Export Plug-In . SVG Version: 6.00 Build 0)  -->
<svg version="1.0" id="Layer_1" xmlns="http://www.w3.org/2000/svg" xmlns:xlink="http://www.w3.org/1999/xlink" x="0px" y="0px"
	 viewBox="0 0 50 50" style="enable-background:new 0 0 50 50;" xml:space="preserve">
<style type="text/css">
	.st0{fill:#010101;}
</style>
<g>
	<path class="st0" d="M47.4,46.22l-7.35-14.15l1.33-1.12c0.2-0.17,0.32-0.41,0.32-0.67V9.05c0-3.61-2.94-6.55-6.55-6.55h-20.3
		c-3.61,0-6.55,2.94-6.55,6.55v11.29v1.41v8.53c0,0.26,0.12,0.51,0.32,0.67l1.33,1.12L2.6,46.22c-0.22,0.43-0.06,0.96,0.37,1.19
		c0.13,0.07,0.27,0.1,0.4,0.1c0.32,0,0.62-0.17,0.78-0.47l7.17-13.81l1.21,1.02L7.92,46.31c-0.17,0.45,0.05,0.96,0.51,1.14
		c0.1,0.04,0.21,0.06,0.31,0.06c0.35,0,0.69-0.21,0.82-0.56l0.93-2.42h22.33c0.49,0,0.88-0.39,0.88-0.88c0-0.49-0.39-0.88-0.88-0.88
		H11.16l0.68-1.77c0.04,0,0.07,0.01,0.11,0.01h26.06c0.05,0,0.1,0,0.14-0.01l2.28,5.95c0.13,0.35,0.47,0.56,0.82,0.56
		c0.1,0,0.21-0.02,0.31-0.06c0.45-0.17,0.68-0.68,0.51-1.14l-4.63-12.07l1.21-1.02l7.17,13.81c0.16,0.3,0.46,0.47,0.78,0.47
		c0.14,0,0.28-0.03,0.4-0.1C47.46,47.18,47.62,46.65,47.4,46.22z M37.49,39.24H12.51l1.46-3.81l2.1,1.76
		c0.16,0.13,0.36,0.2,0.56,0.2h16.72c0.21,0,0.41-0.07,0.56-0.2l2.1-1.76L37.49,39.24z M39.94,29.86l-6.9,5.77h-2.51v-1.27
		c0-0.49-0.39-0.88-0.88-0.88c-0.49,0-0.88,0.39-0.88,0.88v1.27h-2.67v-1.27c0-0.49-0.39-0.88-0.88-0.88
		c-0.49,0-0.88,0.39-0.88,0.88v1.27h-2.67v-1.27c0-0.49-0.39-0.88-0.88-0.88c-0.49,0-0.88,0.39-0.88,0.88v1.27h-2.97l-6.9-5.77
		v-8.11v-1.41V9.05c0-2.64,2.15-4.79,4.79-4.79h20.3c2.64,0,4.79,2.15,4.79,4.79V29.86z"/>
	<path class="st0" d="M36.43,42.75c-0.23,0-0.46,0.09-0.62,0.26c-0.16,0.16-0.26,0.39-0.26,0.62c0,0.23,0.09,0.46,0.26,0.62
		c0.16,0.16,0.39,0.26,0.62,0.26c0.23,0,0.46-0.09,0.62-0.26c0.16-0.16,0.26-0.39,0.26-0.62c0-0.23-0.09-0.46-0.26-0.62
		C36.88,42.85,36.66,42.75,36.43,42.75z"/>
	<path class="st0" d="M34.84,8.83H15.16c-1.45,0-2.64,1.18-2.64,2.64v7.73c0,1.45,1.18,2.64,2.64,2.64h19.69
		c1.45,0,2.64-1.18,2.64-2.64v-7.73C37.48,10.01,36.3,8.83,34.84,8.83z M24.12,20.08h-8.96c-0.48,0-0.88-0.39-0.88-0.88v-7.73
		c0-0.48,0.39-0.88,0.88-0.88h8.96V20.08z M35.72,19.2c0,0.48-0.39,0.88-0.88,0.88h-8.96v-9.49h8.96c0.48,0,0.88,0.39,0.88,0.88
		V19.2z"/>
	<path class="st0" d="M15.48,24.12c-1.65,0-2.99,1.34-2.99,2.99c0,1.65,1.34,2.99,2.99,2.99s2.99-1.34,2.99-2.99
		C18.47,25.46,17.13,24.12,15.48,24.12z M15.48,28.34c-0.68,0-1.23-0.55-1.23-1.23c0-0.68,0.55-1.23,1.23-1.23
		c0.68,0,1.23,0.55,1.23,1.23C16.71,27.79,16.16,28.34,15.48,28.34z"/>
	<path class="st0" d="M34.49,24.12c-1.65,0-2.99,1.34-2.99,2.99c0,1.65,1.34,2.99,2.99,2.99c1.65,0,2.99-1.34,2.99-2.99
		C37.48,25.46,36.14,24.12,34.49,24.12z M34.49,28.34c-0.68,0-1.23-0.55-1.23-1.23c0-0.68,0.55-1.23,1.23-1.23
		c0.68,0,1.23,0.55,1.23,1.23C35.72,27.79,35.17,28.34,34.49,28.34z"/>
	<path class="st0" d="M29.66,24.13H20.8c-0.49,0-0.88,0.39-0.88,0.88s0.39,0.88,0.88,0.88h8.85c0.49,0,0.88-0.39,0.88-0.88
		S30.14,24.13,29.66,24.13z"/>
	<path class="st0" d="M29.66,28.34H20.8c-0.49,0-0.88,0.39-0.88,0.88c0,0.49,0.39,0.88,0.88,0.88h8.85c0.49,0,0.88-0.39,0.88-0.88
		C30.54,28.73,30.14,28.34,29.66,28.34z"/>
</g>
</svg>
