<?xml version="1.0" encoding="utf-8"?>
<!-- Generator: Adobe Illustrator 26.3.1, SVG Export Plug-In . SVG Version: 6.00 Build 0)  -->
<svg version="1.0" id="Layer_1" xmlns="http://www.w3.org/2000/svg" xmlns:xlink="http://www.w3.org/1999/xlink" x="0px" y="0px"
	 viewBox="0 0 50 50" style="enable-background:new 0 0 50 50;" xml:space="preserve">
<style type="text/css">
	.st0{fill:#010101;}
</style>
<g>
	<path class="st0" d="M46.84,25.66H3.16c-0.36,0-0.66-0.3-0.66-0.66v-2.73c0-0.36,0.3-0.66,0.66-0.66h36.78
		c0.36,0,0.66,0.3,0.66,0.66s-0.3,0.66-0.66,0.66H3.82v1.41h42.36v-1.41h-3.36c-0.36,0-0.66-0.3-0.66-0.66s0.3-0.66,0.66-0.66h4.02
		c0.36,0,0.66,0.3,0.66,0.66V25C47.5,25.37,47.2,25.66,46.84,25.66z"/>
	<path class="st0" d="M35.92,33.85H14.08c-0.36,0-0.66-0.3-0.66-0.66V25c0-0.36,0.3-0.66,0.66-0.66h21.84c0.36,0,0.66,0.3,0.66,0.66
		v8.19C36.58,33.56,36.28,33.85,35.92,33.85z M14.74,32.53h20.52v-6.87H14.74V32.53z"/>
	<path class="st0" d="M19.54,31.12c-1.12,0-2.02-0.91-2.02-2.02s0.91-2.02,2.02-2.02s2.02,0.91,2.02,2.02S20.66,31.12,19.54,31.12z
		 M19.54,28.39c-0.39,0-0.71,0.32-0.71,0.71c0,0.39,0.32,0.71,0.71,0.71s0.71-0.32,0.71-0.71C20.25,28.71,19.93,28.39,19.54,28.39z"
		/>
	<path class="st0" d="M30.46,31.12c-1.12,0-2.02-0.91-2.02-2.02s0.91-2.02,2.02-2.02s2.02,0.91,2.02,2.02S31.58,31.12,30.46,31.12z
		 M30.46,28.39c-0.39,0-0.71,0.32-0.71,0.71c0,0.39,0.32,0.71,0.71,0.71s0.71-0.32,0.71-0.71C31.17,28.71,30.85,28.39,30.46,28.39z"
		/>
	<path class="st0" d="M25,22.82c-0.36,0-0.66-0.3-0.66-0.66v-2.61c0-0.36,0.3-0.66,0.66-0.66c0.36,0,0.66,0.3,0.66,0.66v2.61
		C25.66,22.52,25.36,22.82,25,22.82z"/>
	<path class="st0" d="M16.81,22.93c-0.36,0-0.66-0.3-0.66-0.66v-1.41c0-1.09,0.89-1.98,1.98-1.98h1.41c0.36,0,0.66,0.3,0.66,0.66
		c0,0.36-0.3,0.66-0.66,0.66h-1.41c-0.36,0-0.66,0.3-0.66,0.66v1.41C17.47,22.64,17.17,22.93,16.81,22.93z"/>
	<path class="st0" d="M33.19,22.93c-0.36,0-0.66-0.3-0.66-0.66v-1.41c0-0.36-0.3-0.66-0.66-0.66h-1.41c-0.36,0-0.66-0.3-0.66-0.66
		c0-0.36,0.3-0.66,0.66-0.66h1.41c1.09,0,1.98,0.89,1.98,1.98v1.41C33.85,22.64,33.55,22.93,33.19,22.93z"/>
	<path class="st0" d="M35.92,47.5H14.08c-0.36,0-0.66-0.3-0.66-0.66V33.19c0-0.36,0.3-0.66,0.66-0.66h21.84
		c0.36,0,0.66,0.3,0.66,0.66v13.65C36.58,47.2,36.28,47.5,35.92,47.5z M14.74,46.18h20.52V33.85H14.74V46.18z"/>
	<path class="st0" d="M33.19,44.77H16.81c-0.36,0-0.66-0.3-0.66-0.66v-2.66c0-0.36,0.3-0.66,0.66-0.66c0.36,0,0.66,0.3,0.66,0.66v2
		h15.06v-6.87H17.47v2c0,0.36-0.3,0.66-0.66,0.66c-0.36,0-0.66-0.3-0.66-0.66v-2.66c0-0.36,0.3-0.66,0.66-0.66h16.38
		c0.36,0,0.66,0.3,0.66,0.66v8.19C33.85,44.48,33.55,44.77,33.19,44.77z"/>
	<path class="st0" d="M46.84,33.85H35.92c-0.36,0-0.66-0.3-0.66-0.66V25c0-0.36,0.3-0.66,0.66-0.66h10.92c0.36,0,0.66,0.3,0.66,0.66
		v8.19C47.5,33.55,47.2,33.85,46.84,33.85z M36.58,32.53h9.6v-6.87h-9.6V32.53z"/>
	<path class="st0" d="M46.84,47.5H35.92c-0.36,0-0.66-0.3-0.66-0.66V33.19c0-0.36,0.3-0.66,0.66-0.66h10.92
		c0.36,0,0.66,0.3,0.66,0.66v13.65C47.5,47.2,47.2,47.5,46.84,47.5z M36.58,46.18h9.6V33.85h-9.6V46.18z"/>
	<path class="st0" d="M42.75,29.75h-2.73c-0.36,0-0.66-0.3-0.66-0.66s0.3-0.66,0.66-0.66h2.73c0.36,0,0.66,0.3,0.66,0.66
		S43.11,29.75,42.75,29.75z"/>
	<path class="st0" d="M38.65,42.04c-0.36,0-0.66-0.3-0.66-0.66v-2.73c0-0.36,0.3-0.66,0.66-0.66s0.66,0.3,0.66,0.66v2.73
		C39.31,41.74,39.01,42.04,38.65,42.04z"/>
	<path class="st0" d="M14.08,33.85H3.16c-0.36,0-0.66-0.3-0.66-0.66V25c0-0.36,0.3-0.66,0.66-0.66h10.92c0.36,0,0.66,0.3,0.66,0.66
		v8.19C14.74,33.55,14.44,33.85,14.08,33.85z M3.82,32.53h9.6v-6.87h-9.6V32.53z"/>
	<path class="st0" d="M14.08,47.5H3.16c-0.36,0-0.66-0.3-0.66-0.66V33.19c0-0.36,0.3-0.66,0.66-0.66h10.92
		c0.36,0,0.66,0.3,0.66,0.66v13.65C14.74,47.2,14.44,47.5,14.08,47.5z M3.82,46.18h9.6V33.85h-9.6V46.18z"/>
	<path class="st0" d="M9.98,29.75H7.25c-0.36,0-0.66-0.3-0.66-0.66s0.3-0.66,0.66-0.66h2.73c0.36,0,0.66,0.3,0.66,0.66
		S10.35,29.75,9.98,29.75z"/>
	<path class="st0" d="M11.35,42.04c-0.36,0-0.66-0.3-0.66-0.66v-2.73c0-0.36,0.3-0.66,0.66-0.66s0.66,0.3,0.66,0.66v2.73
		C12.01,41.74,11.71,42.04,11.35,42.04z"/>
	<path class="st0" d="M35.92,12.01h-9.39c-0.36,0-0.66-0.3-0.66-0.66s0.3-0.66,0.66-0.66h8.73V9.28H14.74v1.41h8.92
		c0.36,0,0.66,0.3,0.66,0.66s-0.3,0.66-0.66,0.66h-9.58c-0.36,0-0.66-0.3-0.66-0.66V8.62c0-0.36,0.3-0.66,0.66-0.66h21.84
		c0.36,0,0.66,0.3,0.66,0.66v2.73C36.58,11.71,36.28,12.01,35.92,12.01z"/>
	<path class="st0" d="M35.92,9.28H14.08c-0.29,0-0.55-0.19-0.63-0.47c-0.08-0.28,0.02-0.58,0.27-0.74l4.1-2.73
		c0.11-0.07,0.24-0.11,0.37-0.11h13.65c0.13,0,0.26,0.04,0.37,0.11l4.1,2.73c0.24,0.16,0.35,0.46,0.27,0.74
		C36.47,9.09,36.21,9.28,35.92,9.28z M16.26,7.96h17.49l-2.12-1.41H18.37L16.26,7.96z"/>
	<path class="st0" d="M27.73,6.55h-5.46c-0.36,0-0.66-0.3-0.66-0.66V3.16c0-0.36,0.3-0.66,0.66-0.66h5.46c0.36,0,0.66,0.3,0.66,0.66
		v2.73C28.39,6.25,28.09,6.55,27.73,6.55z M22.93,5.23h4.14V3.82h-4.14V5.23z"/>
</g>
</svg>
