<?xml version="1.0" encoding="utf-8"?>
<!-- Generator: Adobe Illustrator 26.3.1, SVG Export Plug-In . SVG Version: 6.00 Build 0)  -->
<svg version="1.0" id="Layer_1" xmlns="http://www.w3.org/2000/svg" xmlns:xlink="http://www.w3.org/1999/xlink" x="0px" y="0px"
	 viewBox="0 0 50 50" style="enable-background:new 0 0 50 50;" xml:space="preserve">
<style type="text/css">
	.st0{fill:#010101;}
</style>
<g>
	<path class="st0" d="M45.01,18.34h-3.92v-0.21c0-0.9-0.74-1.64-1.64-1.64H4.95c-0.9,0-1.64,0.73-1.64,1.64v7.65
		c0,5.16,2.08,10.03,5.75,13.62H2.71c-0.42,0-0.81,0.22-1.03,0.57c-0.22,0.36-0.24,0.8-0.05,1.18c1.13,2.26,3.41,3.67,5.94,3.67
		h18.6c0.39,0,0.71-0.32,0.71-0.71c0-0.39-0.32-0.71-0.71-0.71H7.56c-1.87,0-3.56-0.98-4.5-2.57h38.26c-0.93,1.6-2.62,2.57-4.5,2.57
		h-3.26c-0.39,0-0.71,0.32-0.71,0.71c0,0.39,0.32,0.71,0.71,0.71h3.26c2.53,0,4.8-1.41,5.94-3.67c0.19-0.38,0.17-0.82-0.05-1.18
		c-0.22-0.36-0.61-0.57-1.03-0.57h-6.25c1.1-1.08,2.05-2.27,2.84-3.55h2.1c4.48,0,8.12-3.64,8.12-8.12v-5.89
		C48.5,19.91,46.93,18.34,45.01,18.34z M41.09,23.47h2.28v4.25c0,1.62-1.29,2.93-2.9,2.98c0.4-1.54,0.62-3.14,0.62-4.78V23.47z
		 M16.76,23.91l2.87,2.87c0.04,0.04,0.06,0.1,0.06,0.15v4.16c0,0.12-0.1,0.21-0.21,0.21h-5.44c-0.12,0-0.21-0.1-0.21-0.21v-4.16
		c0-0.06,0.02-0.11,0.06-0.15L16.76,23.91z M33.31,39.39H11.19C7.09,36,4.74,31.05,4.74,25.77v-7.65c0-0.12,0.1-0.21,0.21-0.21h11.1
		v4.69l-3.17,3.17c-0.31,0.31-0.48,0.73-0.48,1.16v4.16c0,0.9,0.73,1.64,1.64,1.64h5.44c0.9,0,1.64-0.74,1.64-1.64v-4.16
		c0-0.44-0.17-0.85-0.48-1.16l-3.17-3.17v-4.69h21.98c0.12,0,0.21,0.1,0.21,0.21v7.8C39.67,31.17,37.35,36.06,33.31,39.39z
		 M47.08,27.72c0,3.69-3.01,6.7-6.7,6.7h-1.3c0.37-0.74,0.7-1.5,0.97-2.28h0.33c2.44,0,4.42-1.98,4.42-4.42v-4.5
		c0-0.65-0.53-1.18-1.18-1.18h-2.53v-2.28h3.92c1.14,0,2.07,0.93,2.07,2.07V27.72z"/>
	<path class="st0" d="M30.37,43.6c-0.07-0.07-0.14-0.12-0.23-0.15c-0.27-0.11-0.59-0.05-0.78,0.15c-0.07,0.07-0.12,0.14-0.15,0.23
		c-0.04,0.09-0.06,0.18-0.06,0.28c0,0.09,0.02,0.18,0.06,0.28c0.03,0.09,0.09,0.16,0.15,0.23c0.07,0.07,0.14,0.11,0.23,0.15
		c0.09,0.04,0.18,0.06,0.28,0.06s0.18-0.02,0.28-0.06c0.09-0.04,0.16-0.09,0.23-0.15c0.07-0.07,0.11-0.14,0.15-0.23
		c0.04-0.1,0.06-0.18,0.06-0.28c0-0.1-0.02-0.19-0.06-0.28C30.49,43.74,30.44,43.67,30.37,43.6z"/>
	<path class="st0" d="M16.4,13.19c0.11,0.06,0.22,0.08,0.33,0.08c0.25,0,0.5-0.14,0.63-0.38c0.33-0.61,0.5-1.31,0.5-2
		c0-0.88-0.27-1.57-0.5-2c-0.18-0.35-0.62-0.48-0.96-0.29c-0.35,0.18-0.48,0.62-0.29,0.96c0.15,0.28,0.33,0.75,0.33,1.33
		c0,0.32-0.06,0.82-0.33,1.33C15.92,12.58,16.05,13.01,16.4,13.19z"/>
	<path class="st0" d="M21.91,10.9c0,0.32-0.06,0.82-0.33,1.33c-0.19,0.35-0.05,0.78,0.29,0.96c0.11,0.06,0.22,0.08,0.33,0.08
		c0.25,0,0.5-0.14,0.63-0.38c0.41-0.78,0.5-1.52,0.5-2c0-0.88-0.27-1.57-0.5-2c-0.27-0.52-0.33-1.01-0.33-1.33
		c0-0.59,0.18-1.05,0.33-1.33c0.19-0.35,0.05-0.78-0.29-0.96c-0.35-0.18-0.78-0.05-0.96,0.29c-0.23,0.43-0.5,1.12-0.5,2
		c0,0.7,0.17,1.39,0.5,2C21.73,9.85,21.91,10.31,21.91,10.9z"/>
	<path class="st0" d="M27.33,13.19c0.11,0.06,0.22,0.08,0.33,0.08c0.25,0,0.5-0.14,0.63-0.38c0.41-0.78,0.5-1.52,0.5-2
		c0-0.7-0.17-1.39-0.5-2c-0.19-0.35-0.62-0.48-0.96-0.29c-0.35,0.18-0.48,0.62-0.29,0.96c0.15,0.29,0.33,0.75,0.33,1.33
		c0,0.32-0.06,0.82-0.33,1.33C26.85,12.58,26.98,13.01,27.33,13.19z"/>
</g>
</svg>
