<?xml version="1.0" encoding="utf-8"?>
<!-- Generator: Adobe Illustrator 26.3.1, SVG Export Plug-In . SVG Version: 6.00 Build 0)  -->
<svg version="1.1" id="Layer_1" xmlns="http://www.w3.org/2000/svg" xmlns:xlink="http://www.w3.org/1999/xlink" x="0px" y="0px"
	 viewBox="0 0 50 50" style="enable-background:new 0 0 50 50;" xml:space="preserve">
<g>
	<path id="_x39_" d="M6.3,30.7h6.4c0.4,0,0.7,0.3,0.7,0.7v15.4c0,0.4-0.3,0.7-0.7,0.7H6.3c-0.4,0-0.7-0.3-0.7-0.7V31.4
		C5.6,31,5.9,30.7,6.3,30.7L6.3,30.7z M26.7,30.7h17c0.4,0,0.7,0.3,0.7,0.7v15.4c0,0.4-0.3,0.7-0.7,0.7h-17c-0.4,0-0.7-0.3-0.7-0.7
		V31.4C26,31,26.3,30.7,26.7,30.7L26.7,30.7z M43,32.1H27.4v14H43L43,32.1L43,32.1z M12,32.1H7v14h5V32.1z"/>
	<path id="_x38_" d="M30.6,33.6h9.1c0.4,0,0.7,0.2,1,0.4c0,0,0,0,0,0.1c0.2,0.2,0.4,0.6,0.4,0.9V39c0,0.4-0.2,0.7-0.4,1h0
		c-0.2,0.3-0.6,0.4-1,0.4h-9.1c-0.4,0-0.7-0.2-1-0.4c-0.3-0.2-0.4-0.6-0.4-1V35c0-0.4,0.2-0.7,0.4-1C29.9,33.8,30.2,33.6,30.6,33.6z
		 M35.2,36.3c0.4,0,0.7,0.3,0.7,0.7s-0.3,0.7-0.7,0.7c-0.4,0-0.7-0.3-0.7-0.7S34.8,36.3,35.2,36.3z M39.7,35h-9.1V39h9.1V35z
		 M40.8,34.1c0.2,0.3,0.2,0.7,0,0.9"/>
	<path id="_x37_" d="M6,7.9h18.3c0.6,0,1.2,0.3,1.6,0.7c0.4,0.4,0.7,1,0.7,1.6v9.4v3c0,0.6-0.3,1.2-0.7,1.6c-0.4,0.4-1,0.7-1.6,0.7
		H6c-0.6,0-1.2-0.3-1.6-0.7c-0.4-0.4-0.7-1-0.7-1.6v-3v-9.4c0-0.6,0.3-1.2,0.7-1.6C4.8,8.2,5.4,7.9,6,7.9L6,7.9z M25.2,20.4H5.1v2.3
		c0,0.3,0.1,0.5,0.3,0.7c0.2,0.2,0.4,0.3,0.6,0.3h18.3c0.3,0,0.5-0.1,0.6-0.3c0.2-0.2,0.3-0.4,0.3-0.7L25.2,20.4L25.2,20.4z M5.1,19
		h20.1v-8.7c0-0.3-0.1-0.5-0.3-0.7c-0.2-0.2-0.4-0.3-0.6-0.3H6c-0.2,0-0.5,0.1-0.6,0.3C5.2,9.8,5.1,10,5.1,10.3L5.1,19L5.1,19z
		 M15.2,21.4c0.4,0,0.7,0.3,0.7,0.7c0,0.4-0.3,0.7-0.7,0.7s-0.7-0.3-0.7-0.7C14.5,21.7,14.8,21.4,15.2,21.4z"/>
	<path id="_x36_" d="M12.8,23.7h4.7c0.4,0,0.7,0.3,0.7,0.7v4c0,0.4-0.3,0.7-0.7,0.7h-4.7c-0.4,0-0.7-0.3-0.7-0.7v-4
		C12.1,24,12.4,23.7,12.8,23.7L12.8,23.7z M16.8,25.1h-3.3v2.6h3.3V25.1z"/>
	<path id="_x35_" d="M37.6,7.7c-0.2-0.3-0.1-0.8,0.2-1c0.3-0.2,0.8-0.2,1,0.1l5.9,8.1c0.2,0.3,0.2,0.7-0.1,1c-0.3,0.2-0.8,0.2-1-0.2
		L37.6,7.7z M43.6,19.2c0.2-0.3,0.6-0.5,0.9-0.3c0.3,0.2,0.5,0.6,0.3,0.9l-4.4,8.8c-0.2,0.3-0.6,0.5-0.9,0.3
		c-0.3-0.2-0.5-0.6-0.3-0.9L43.6,19.2z"/>
	<path id="_x34_" d="M44.7,16c-0.8,0-1.4,0.6-1.4,1.4c0,0.8,0.6,1.4,1.4,1.4c0.8,0,1.4-0.6,1.4-1.4C46.1,16.6,45.5,16,44.7,16z
		 M44.7,14.6c1.5,0,2.8,1.3,2.8,2.8c0,1.5-1.3,2.8-2.8,2.8c-1.5,0-2.8-1.3-2.8-2.8C41.9,15.9,43.2,14.6,44.7,14.6z"/>
	<path id="_x33_" d="M34.7,4.5l2-1.6c0.5-0.4,1-0.5,1.6-0.4c0.5,0.1,1.1,0.3,1.5,0.8l0.4,0.5c0.4,0.5,0.5,1.1,0.4,1.6
		c-0.1,0.6-0.3,1.1-0.8,1.5l-1.9,1.5c0,0.3,0,0.5,0,0.8c-0.1,0.8-0.5,1.5-1.1,2l-1.8,1.4c-0.3,0.2-0.7,0.2-1-0.1l-4.2-5.3
		c-0.2-0.3-0.2-0.7,0.1-1l1.8-1.4c0.6-0.5,1.4-0.7,2.2-0.6C34.1,4.3,34.4,4.4,34.7,4.5z M36.1,8l-1.4-1.7c-0.2-0.3-0.6-0.5-1-0.6
		c-0.4,0-0.8,0.1-1.2,0.3l-1.2,1l3.3,4.2l1.2-1c0.3-0.3,0.5-0.6,0.6-1C36.5,8.7,36.4,8.4,36.1,8L36.1,8z M37.5,4.1l-1.6,1.3l0,0
		l1.4,1.7l0,0l1.6-1.3c0.2-0.1,0.3-0.3,0.3-0.5c0-0.2,0-0.4-0.2-0.6l-0.4-0.5c-0.1-0.2-0.3-0.3-0.5-0.3C37.9,3.9,37.6,3.9,37.5,4.1
		L37.5,4.1z"/>
	<path id="_x32_" d="M30.1,19.9h4.5c0.4,0,0.8,0.2,1,0.4c0.3,0.3,0.4,0.6,0.4,1v0.1h0.7c1.2,0,2.1,0.9,2.1,2.1v1.4
		c0,1.2-0.9,2.1-2.1,2.1H36v1.3c0,0.4-0.3,0.7-0.7,0.7h-6c-0.4,0-0.7-0.3-0.7-0.7v-7C28.6,20.5,29.3,19.9,30.1,19.9L30.1,19.9z
		 M36,22.9v2.8h0.7c0.4,0,0.7-0.3,0.7-0.7v-1.4c0-0.4-0.3-0.7-0.7-0.7L36,22.9z M34.6,21.3h-4.5c0,0,0,0,0,0v6.3h4.6v-1.3v-4.2
		L34.6,21.3C34.6,21.3,34.6,21.3,34.6,21.3z"/>
	<path id="_x31_" d="M3.9,27.6h42.2c0.4,0,0.7,0.2,1,0.4c0,0,0,0,0,0c0.2,0.2,0.4,0.6,0.4,0.9v1.6c0,0.4-0.2,0.7-0.4,1
		c-0.3,0.3-0.6,0.4-1,0.4H3.9c-0.4,0-0.7-0.1-1-0.4c-0.3-0.2-0.4-0.6-0.4-1V29c0-0.4,0.2-0.7,0.4-1C3.2,27.8,3.5,27.6,3.9,27.6z
		 M46.1,29H3.9v1.6h42.2V29z M47.1,28.1c0.2,0.3,0.2,0.7,0,0.9"/>
</g>
</svg>
