<?xml version="1.0" encoding="utf-8"?>
<!-- Generator: Adobe Illustrator 26.3.1, SVG Export Plug-In . SVG Version: 6.00 Build 0)  -->
<svg version="1.1" id="Layer_1" xmlns="http://www.w3.org/2000/svg" xmlns:xlink="http://www.w3.org/1999/xlink" x="0px" y="0px"
	 viewBox="0 0 50 50" style="enable-background:new 0 0 50 50;" xml:space="preserve">
<g id="Page-1">
	<g id="_x30_22---Park-Bench">
		<path id="Shape" d="M45.2,43h-1.5v-3h1.5c0.8,0,1.5-0.7,1.5-1.5V37c0-0.8-0.7-1.5-1.5-1.5h-4.5v-3h4.5c0.8,0,1.5-0.7,1.5-1.5v-4.5
			c0-0.8-0.7-1.5-1.5-1.5H28.7c0.7-0.9,1.1-2.1,1.1-3.3c0-0.7-0.1-1.3-0.4-1.9c-0.1-0.3-0.3-0.6-0.4-0.8c2.1-1.2,3.1-3.7,2.4-6
			C30.9,10.6,28.7,9,26.3,9c-0.4,0-0.8,0-1.1,0.1c-0.3-3.4-2.9-6.1-6.3-6.5s-6.6,1.6-7.7,4.8c-0.3-0.2-0.5-0.4-0.8-0.6
			C8.3,5.7,5.7,6.1,4.1,7.7S2,11.9,3.1,14c0.2,0.5,0.5,0.9,0.9,1.2c-0.4,0.4-0.7,0.8-0.9,1.2c-0.9,1.7-0.8,3.6,0.2,5.2
			s2.7,2.6,4.6,2.6c0.5,0,0.9-0.1,1.4-0.2c0.2,0,0.3-0.1,0.5-0.2c0.3,0.6,0.6,1.1,1,1.5v9.2c0,5-0.2,8.2-3,8.2h-3
			c-1.2,0-2.2,1-2.2,2.2c0,1.2,1,2.2,2.2,2.2h40.5c1.2,0,2.2-1,2.2-2.2C47.5,44,46.5,43,45.2,43L45.2,43z M42.2,43h-1.5v-3h1.5V43z
			 M21.2,43v-3h18v3H21.2z M18.2,40h1.5v3h-1.5V40z M45.2,38.5h-30V37h30V38.5z M17.5,34.7v-2.2h2.2v3h-2.2
			C17.5,35.2,17.5,35,17.5,34.7z M36.2,32.5v3h-12v-3H36.2z M22.8,35.5h-1.5v-3h1.5V35.5z M39.2,35.5h-1.5v-3h1.5V35.5z M45.2,31
			h-30v-4.5h30V31z M10.4,22.3c-0.2-0.1-0.4-0.1-0.6,0c-1.5,0.8-3.4,0.6-4.6-0.6c-1.2-1.2-1.5-3-0.7-4.5c0.3-0.5,0.7-1,1.1-1.3
			c0.2-0.1,0.3-0.4,0.3-0.6c0-0.2-0.1-0.5-0.3-0.6c-0.5-0.4-0.9-0.8-1.1-1.3C3.7,11.8,3.9,10,5.1,8.8c1.2-1.2,3-1.5,4.5-0.7
			c0.5,0.3,1,0.7,1.4,1.2c0.2,0.2,0.5,0.4,0.8,0.3s0.5-0.3,0.6-0.6c0.4-2.8,2.8-5,5.7-5c1.5,0,3,0.6,4,1.7c1.1,1.1,1.7,2.6,1.7,4.1
			c0,0,0,0.1,0,0.1l0,0.1c0,0.3,0.1,0.5,0.3,0.7s0.5,0.2,0.7,0.1c0.2-0.1,0.5-0.2,0.8-0.2c0.3-0.1,0.5-0.1,0.8-0.1
			c1.9,0,3.5,1.3,3.8,3.2c0.3,1.8-0.7,3.7-2.5,4.3c-0.2,0.1-0.4,0.3-0.5,0.5c-0.1,0.2,0,0.5,0.2,0.7c0.3,0.3,0.6,0.7,0.7,1.2
			c0.2,0.4,0.3,0.9,0.3,1.4c0,1-0.4,2-1.1,2.7c-0.2,0.2-0.5,0.4-0.7,0.6H15.2c-0.6,0-1.2,0.4-1.4,1c-0.3-0.2-0.7-0.3-1-0.6
			c-0.3-0.2-0.6-0.5-0.8-0.7c-0.6-0.6-1-1.3-1.2-2C10.7,22.5,10.6,22.3,10.4,22.3L10.4,22.3z M12.3,34.7v-7.9c0.5,0.3,1,0.6,1.5,0.8
			V31c0,0.8,0.7,1.5,1.5,1.5H16v2.2v0.8h-0.7c-0.8,0-1.5,0.7-1.5,1.5v1.5c0,0.8,0.7,1.5,1.5,1.5h1.5v3h-5.9
			C12.2,41.1,12.3,37.8,12.3,34.7z M45.2,46H4.8C4.3,46,4,45.7,4,45.2c0-0.4,0.3-0.8,0.8-0.8h40.5c0.4,0,0.8,0.3,0.8,0.8
			C46,45.7,45.7,46,45.2,46z"/>
		<path id="Shape_00000034056899747183245620000011268750584442620291_" d="M13,20.5c0.4,0,0.8-0.3,0.8-0.8S13.4,19,13,19
			c-0.8,0-1.5-0.7-1.5-1.5c0-0.4-0.3-0.8-0.8-0.8S10,17.1,10,17.5C10,19.2,11.3,20.5,13,20.5z"/>
		<path id="Shape_00000009565038517712437680000014173009319030329243_" d="M21.2,19c1.7,0,3-1.3,3-3c0-0.4-0.3-0.8-0.8-0.8
			s-0.8,0.3-0.8,0.8c0,0.8-0.7,1.5-1.5,1.5c-0.4,0-0.8,0.3-0.8,0.8S20.8,19,21.2,19z"/>
	</g>
</g>
</svg>
