<?xml version="1.0" encoding="utf-8"?>
<!-- Generator: Adobe Illustrator 26.3.1, SVG Export Plug-In . SVG Version: 6.00 Build 0)  -->
<svg version="1.1" id="Layer_1" xmlns="http://www.w3.org/2000/svg" xmlns:xlink="http://www.w3.org/1999/xlink" x="0px" y="0px"
	 viewBox="0 0 50 50" style="enable-background:new 0 0 50 50;" xml:space="preserve">
<g id="Page-1">
	<g id="_x30_28---Notice-Board">
		<path id="Shape" d="M44.2,4.2H6.7C4.6,4.3,3,5.9,3,8v33c0,2.1,1.7,3.7,3.8,3.8h5.4c0.4,0.7,1.1,1.1,1.9,1.1c0.3,0,0.5,0,0.8-0.1
			l2.7-1h26.6c2.1,0,3.7-1.7,3.8-3.8V8C47.9,5.9,46.3,4.3,44.2,4.2L44.2,4.2z M30,41V30.5h3v0.7c0,0.8,0.7,1.5,1.5,1.5H36
			c0.8,0,1.5-0.7,1.5-1.5v-0.7h3v6h-3.8c-0.4,0-0.7,0.3-0.7,0.7V41H30z M36,29.7v1.5h-1.5v-3H36V29.7z M39.4,38l-1.9,1.9V38H39.4z
			 M41.7,37.8c0.1-0.1,0.2-0.3,0.2-0.5v-6.7c0-0.8-0.7-1.5-1.5-1.5h-3v-0.7c0-0.8-0.7-1.5-1.5-1.5h-1.5c-0.8,0-1.5,0.7-1.5,1.5V29
			h-3c-0.8,0-1.5,0.7-1.5,1.5v9.7h-2.3c0-0.3,0-0.7-0.1-1l-3.6-9.9c-0.4-1.2-1.7-1.8-2.9-1.3l-9.9,3.6c-1.2,0.4-1.8,1.7-1.3,2.9
			l2.1,5.7h-3V8.7h36v31.5h-4.2L41.7,37.8z M14.3,44.3c-0.2,0.1-0.4,0.1-0.6,0c-0.2-0.1-0.3-0.2-0.4-0.4l-1.2-3.2L9.8,34
			c-0.1-0.2-0.1-0.4,0-0.6c0.1-0.2,0.2-0.3,0.4-0.4l9.9-3.6c0.2-0.1,0.4-0.1,0.6,0c0.2,0.1,0.3,0.2,0.4,0.4l3.6,9.9
			c0.1,0.2,0.1,0.4,0,0.6c-0.1,0.2-0.2,0.3-0.4,0.4L14.3,44.3z M46.5,41c0,1.2-1,2.2-2.2,2.2H21.7l3-1.1c0.3-0.1,0.5-0.2,0.7-0.4
			h3.3c0.3,0.5,0.8,0.7,1.3,0.7h6.8c0.2,0,0.4-0.1,0.5-0.2l0.5-0.5h6.4c0.4,0,0.7-0.3,0.7-0.7V8c0-0.4-0.3-0.7-0.7-0.7H6.7
			C6.3,7.2,6,7.6,6,8v33c0,0.4,0.3,0.7,0.7,0.7H11l0.5,1.5H6.7c-1.2,0-2.2-1-2.2-2.2V8c0-1.2,1-2.2,2.2-2.2h37.5
			c1.2,0,2.2,1,2.2,2.2L46.5,41L46.5,41z"/>
		<path id="Shape_1_" d="M22.5,12.5h-3.8v-0.7c0-0.8-0.7-1.5-1.5-1.5h-1.5c-0.8,0-1.5,0.7-1.5,1.5v0.7h-3.7C9.6,12.5,9,13.2,9,14
			v10.5c0,0.8,0.7,1.5,1.5,1.5h8.3c0.1,0,0.2,0,0.3-0.1c0.1,0,0.2-0.1,0.2-0.2l4.5-4.5c0.1-0.1,0.2-0.3,0.2-0.5V14
			C24,13.2,23.3,12.5,22.5,12.5L22.5,12.5z M15.7,11.7h1.5v3h-1.5V11.7z M10.5,14h3.8v0.7c0,0.8,0.7,1.5,1.5,1.5h1.5
			c0.8,0,1.5-0.7,1.5-1.5V14h3.8v6h-3.8c-0.4,0-0.7,0.3-0.7,0.7v3.8h-7.5L10.5,14z M19.5,23.4v-1.9h1.9L19.5,23.4z"/>
		<path id="Shape_2_" d="M40.5,13.2h-3.8v-1.5c0-0.8-0.7-1.5-1.5-1.5h-1.5c-0.8,0-1.5,0.7-1.5,1.5v1.5h-3.8c-0.8,0-1.5,0.7-1.5,1.5
			v9c0,0.8,0.7,1.5,1.5,1.5h12c0.8,0,1.5-0.7,1.5-1.5v-9C42,13.9,41.3,13.2,40.5,13.2L40.5,13.2z M33.7,11.7h1.5v3h-1.5V11.7z
			 M40.5,23.7h-12v-9h3.8c0,0.8,0.7,1.5,1.5,1.5h1.5c0.8,0,1.5-0.7,1.5-1.5h3.8L40.5,23.7L40.5,23.7z"/>
		<path id="Shape_3_" d="M30,18.5c0,0.4,0.3,0.7,0.7,0.7h7.5c0.4,0,0.7-0.3,0.7-0.7c0-0.4-0.3-0.7-0.7-0.7h-7.5
			C30.3,17.7,30,18.1,30,18.5z"/>
		<path id="Shape_4_" d="M38.2,20.7h-7.5c-0.4,0-0.7,0.3-0.7,0.7s0.3,0.7,0.7,0.7h7.5c0.4,0,0.7-0.3,0.7-0.7S38.6,20.7,38.2,20.7z"
			/>
		<circle id="Oval" cx="19.9" cy="32" r="0.7"/>
		<path id="Shape_5_" d="M20.9,34.9c-0.1-0.2-0.2-0.3-0.4-0.4c-0.2-0.1-0.4-0.1-0.6,0l-6.3,2.3c-0.3,0.1-0.5,0.5-0.5,0.8
			c0.1,0.4,0.4,0.6,0.7,0.6c0.1,0,0.2,0,0.3,0l6.3-2.3C20.9,35.7,21.1,35.3,20.9,34.9L20.9,34.9z"/>
		<path id="Shape_6_" d="M21.2,38l-6.3,2.3c-0.3,0.1-0.5,0.5-0.5,0.8c0.1,0.4,0.4,0.6,0.7,0.6c0.1,0,0.2,0,0.3,0l6.3-2.3
			c0.4-0.1,0.6-0.6,0.4-1C22,38.1,21.6,37.9,21.2,38L21.2,38z"/>
	</g>
</g>
</svg>
