<?xml version="1.0" encoding="utf-8"?>
<!-- Generator: Adobe Illustrator 26.3.1, SVG Export Plug-In . SVG Version: 6.00 Build 0)  -->
<svg version="1.1" id="Layer_1" xmlns="http://www.w3.org/2000/svg" xmlns:xlink="http://www.w3.org/1999/xlink" x="0px" y="0px"
	 viewBox="0 0 50 50" style="enable-background:new 0 0 50 50;" xml:space="preserve">
<g id="_x31_172_x2C__Filtration_x2C__Purifier_x2C__Uv_x2C__Water">
	<g>
		<circle cx="26.5" cy="8.5" r="1"/>
		<circle cx="34.5" cy="8.5" r="1"/>
		<circle cx="30.5" cy="8.5" r="1"/>
		<path d="M46.5,45.5h-11v-1h1.4c1.4,0,2.6-1.2,2.6-2.6V5.1c0-1.4-1.2-2.6-2.6-2.6H13.1c-1.4,0-2.6,1.2-2.6,2.6v36.8
			c0,1.4,1.2,2.6,2.6,2.6h1.4v1h-11c-0.6,0-1,0.4-1,1s0.4,1,1,1h43c0.6,0,1-0.4,1-1S47.1,45.5,46.5,45.5z M12.5,29.5h25v7h-25V29.5z
			 M22.5,17.5h-2v-3h2V17.5z M19.5,19.5h1v2c0,0.6,0.4,1,1,1s1-0.4,1-1v-2h1c0.6,0,1-0.4,1-1v-4h1v4c0,0.6,0.4,1,1,1h1v2
			c0,0.6,0.4,1,1,1s1-0.4,1-1v-2h1c0.6,0,1-0.4,1-1v-4h0.4c0.9,0,1.6,0.7,1.6,1.6v11.4h-17V16.1c0-0.9,0.7-1.6,1.6-1.6h0.4v4
			C18.5,19.1,18.9,19.5,19.5,19.5z M27.5,17.5v-3h2v3H27.5z M13.1,4.5h23.8c0.3,0,0.6,0.3,0.6,0.6v22.4h-2V16.1c0-2-1.6-3.6-3.6-3.6
			c-4.3,0-9.6,0-13.7,0c-2,0-3.6,1.6-3.6,3.6v11.4h-2V5.1C12.5,4.8,12.8,4.5,13.1,4.5z M12.5,41.9v-3.4h25v3.4
			c0,0.3-0.3,0.6-0.6,0.6c-7.1,0-16.3,0-23.8,0C12.8,42.5,12.5,42.2,12.5,41.9z M29.5,44.5v1h-9v-1H29.5z M16.5,45.5v-1h2v1H16.5z
			 M31.5,45.5v-1h2v1H31.5z"/>
	</g>
</g>
</svg>
