<?xml version="1.0" encoding="utf-8"?>
<!-- Generator: Adobe Illustrator 26.3.1, SVG Export Plug-In . SVG Version: 6.00 Build 0)  -->
<svg version="1.0" id="Layer_1" xmlns="http://www.w3.org/2000/svg" xmlns:xlink="http://www.w3.org/1999/xlink" x="0px" y="0px"
	 viewBox="0 0 50 50" style="enable-background:new 0 0 50 50;" xml:space="preserve">
<style type="text/css">
	.st0{fill:#010101;}
</style>
<g>
	<path class="st0" d="M9.8,23.4c-1.76,0-3.2,1.44-3.2,3.2s1.44,3.2,3.2,3.2s3.2-1.44,3.2-3.2S11.56,23.4,9.8,23.4z M9.8,28.2
		c-0.88,0-1.6-0.72-1.6-1.6c0-0.88,0.72-1.6,1.6-1.6c0.88,0,1.6,0.72,1.6,1.6C11.4,27.48,10.68,28.2,9.8,28.2z"/>
	<path class="st0" d="M10.6,11.4c-1.32,0-2.4,1.08-2.4,2.4V17H7.4c-1.94,0-3.56,1.39-3.92,3.22c-0.67,0.05-1.3,0.34-1.76,0.83
		c-0.5,0.54-0.76,1.27-0.71,2L2.25,41.7c0.1,1.4,1.27,2.5,2.67,2.5h7.28v2.4c0,1.32,1.08,2.4,2.4,2.4h20.8c1.32,0,2.4-1.08,2.4-2.4
		v-2.4h7.28c1.4,0,2.58-1.1,2.67-2.5l1.24-18.64c0.05-0.74-0.21-1.47-0.71-2.01c-0.46-0.49-1.09-0.78-1.76-0.83
		C46.16,18.39,44.54,17,42.6,17h-0.8v-3.2c0-1.32-1.08-2.4-2.4-2.4h-1.6v-8c0-1.32-1.08-2.4-2.4-2.4H22.6c-0.64,0-1.24,0.25-1.7,0.7
		c-0.45,0.45,0,0,0,0l-8,8c0,0,0,0,0,0s0,0,0,0c-0.45,0.45-0.7,1.05-0.7,1.7L10.6,11.4L10.6,11.4z M9.8,13.8
		c0-0.44,0.36-0.8,0.8-0.8h1.6v4H9.8V13.8z M10.6,42.6v-8c0-0.88,0.72-1.6,1.6-1.6v9.6H10.6z M35.4,47.4H14.6
		c-0.44,0-0.8-0.36-0.8-0.8V33h22.4v13.6C36.2,47.04,35.84,47.4,35.4,47.4z M37.8,33c0.88,0,1.6,0.72,1.6,1.6v8h-1.6V33z
		 M47.4,22.95l-1.24,18.64c-0.04,0.57-0.51,1.01-1.08,1.01H41v-8c0-1.76-1.44-3.2-3.2-3.2H12.2c-1.76,0-3.2,1.44-3.2,3.2v8H4.92
		c-0.56,0-1.04-0.44-1.08-1.01L2.6,22.95c-0.02-0.3,0.08-0.58,0.28-0.8c0.21-0.22,0.48-0.34,0.78-0.34h42.66
		c0.3,0,0.58,0.12,0.78,0.34C47.31,22.36,47.42,22.65,47.4,22.95L47.4,22.95z M44.85,20.2H5.15c0.33-0.93,1.21-1.6,2.25-1.6h35.2
		C43.64,18.6,44.52,19.27,44.85,20.2z M39.4,13c0.44,0,0.8,0.36,0.8,0.8V17h-2.4v-4H39.4z M20.2,4.67V8.2c0,0.44-0.36,0.8-0.8,0.8
		h-3.53L20.2,4.67z M14.6,10.6h4.8c1.32,0,2.4-1.08,2.4-2.4V3.4c0-0.21,0.08-0.42,0.23-0.56l0,0c0.15-0.15,0.35-0.23,0.56-0.23h12.8
		c0.44,0,0.8,0.36,0.8,0.8V17H13.8v-5.6c0-0.21,0.08-0.42,0.23-0.57C14.18,10.68,14.38,10.6,14.6,10.6L14.6,10.6z"/>
	<path class="st0" d="M35.4,24.2h-0.8c-0.44,0-0.8,0.36-0.8,0.8c0,0.44,0.36,0.8,0.8,0.8h0.8c0.44,0,0.8-0.36,0.8-0.8
		C36.2,24.56,35.84,24.2,35.4,24.2z"/>
	<path class="st0" d="M35.4,27.4h-0.8c-0.44,0-0.8,0.36-0.8,0.8s0.36,0.8,0.8,0.8h0.8c0.44,0,0.8-0.36,0.8-0.8S35.84,27.4,35.4,27.4
		z"/>
	<path class="st0" d="M30.6,25.8H19.4c-0.44,0-0.8,0.36-0.8,0.8c0,0.44,0.36,0.8,0.8,0.8h11.2c0.44,0,0.8-0.36,0.8-0.8
		S31.04,25.8,30.6,25.8z"/>
	<path class="st0" d="M39.4,24.2h-0.8c-0.44,0-0.8,0.36-0.8,0.8c0,0.44,0.36,0.8,0.8,0.8h0.8c0.44,0,0.8-0.36,0.8-0.8
		C40.2,24.56,39.84,24.2,39.4,24.2z"/>
	<path class="st0" d="M39.4,27.4h-0.8c-0.44,0-0.8,0.36-0.8,0.8s0.36,0.8,0.8,0.8h0.8c0.44,0,0.8-0.36,0.8-0.8S39.84,27.4,39.4,27.4
		z"/>
	<path class="st0" d="M43.4,24.2h-0.8c-0.44,0-0.8,0.36-0.8,0.8c0,0.44,0.36,0.8,0.8,0.8h0.8c0.44,0,0.8-0.36,0.8-0.8
		C44.2,24.56,43.84,24.2,43.4,24.2z"/>
	<path class="st0" d="M43.4,27.4h-0.8c-0.44,0-0.8,0.36-0.8,0.8s0.36,0.8,0.8,0.8h0.8c0.44,0,0.8-0.36,0.8-0.8S43.84,27.4,43.4,27.4
		z"/>
</g>
</svg>
