<?xml version="1.0" encoding="utf-8"?>
<!-- Generator: Adobe Illustrator 26.3.1, SVG Export Plug-In . SVG Version: 6.00 Build 0)  -->
<svg version="1.0" id="Layer_1" xmlns="http://www.w3.org/2000/svg" xmlns:xlink="http://www.w3.org/1999/xlink" x="0px" y="0px"
	 viewBox="0 0 50 50" style="enable-background:new 0 0 50 50;" xml:space="preserve">
<style type="text/css">
	.st0{fill:#010101;}
</style>
<g>
	<path class="st0" d="M42.73,13.27V11.1c0-1.22-0.99-2.21-2.21-2.21h-0.47c-1.22,0-2.21,0.99-2.21,2.21v1.6h-1.38V9.5
		c0-3.55-2.89-6.43-6.43-6.43H29.5h-0.66h-8.87c-3.55,0-6.43,2.89-6.43,6.43v3.2h-1.38v-1.6c0-1.22-0.99-2.21-2.21-2.21H9.48
		c-1.22,0-2.21,0.99-2.21,2.21v2.16C4.47,14.4,2.5,17.15,2.5,20.35v18.94c0,4.21,3.43,7.64,7.64,7.64h29.72
		c4.21,0,7.64-3.43,7.64-7.64V20.35C47.5,17.15,45.53,14.4,42.73,13.27z M39.16,11.1c0-0.49,0.4-0.9,0.9-0.9h0.47
		c0.49,0,0.9,0.4,0.9,0.9v1.76c-0.5-0.1-1.02-0.16-1.55-0.16h-0.7V11.1z M14.86,9.5c0-2.82,2.29-5.11,5.11-5.11h8.87h0.66h0.52
		c2.82,0,5.11,2.29,5.11,5.11v3.2h-2.55V9.5c0-1.41-1.15-2.56-2.56-2.56H19.97c-1.41,0-2.56,1.15-2.56,2.56v3.2h-2.55V9.5z
		 M31.27,12.71H18.73V9.5c0-0.69,0.56-1.25,1.25-1.25h10.05c0.69,0,1.25,0.56,1.25,1.25V12.71z M8.59,11.1c0-0.49,0.4-0.9,0.9-0.9
		h0.47c0.49,0,0.9,0.4,0.9,0.9v1.6h-0.7c-0.53,0-1.05,0.05-1.55,0.16V11.1z M46.18,39.29c0,3.49-2.84,6.32-6.32,6.32H10.14
		c-3.49,0-6.32-2.84-6.32-6.32V20.35c0-3.49,2.84-6.32,6.32-6.32h29.72c3.49,0,6.32,2.84,6.32,6.32V39.29z"/>
	<path class="st0" d="M34.74,24.82h-4.74v-4.74c0-1.34-1.09-2.43-2.43-2.43h-5.13c-1.34,0-2.43,1.09-2.43,2.43v4.74h-4.74
		c-1.34,0-2.43,1.09-2.43,2.43v5.13c0,1.34,1.09,2.43,2.43,2.43h0.7h0.66h3.38v4.74c0,1.34,1.09,2.43,2.43,2.43h5.13
		c1.34,0,2.43-1.09,2.43-2.43v-4.74h4.74c1.34,0,2.43-1.09,2.43-2.43v-5.13C37.16,25.91,36.07,24.82,34.74,24.82z M35.85,32.38
		c0,0.61-0.5,1.11-1.11,1.11h-5.4c-0.36,0-0.66,0.3-0.66,0.66v5.4c0,0.61-0.5,1.11-1.11,1.11h-5.13c-0.61,0-1.11-0.5-1.11-1.11v-5.4
		c0-0.36-0.3-0.66-0.66-0.66h-4.04h-0.66h-0.7c-0.61,0-1.11-0.5-1.11-1.11v-5.13c0-0.61,0.5-1.11,1.11-1.11h5.4
		c0.36,0,0.66-0.3,0.66-0.66v-5.4c0-0.61,0.5-1.11,1.11-1.11h5.13c0.61,0,1.11,0.5,1.11,1.11v5.4c0,0.36,0.3,0.66,0.66,0.66h5.4
		c0.61,0,1.11,0.5,1.11,1.11V32.38z"/>
</g>
</svg>
