<?xml version="1.0" encoding="utf-8"?>
<!-- Generator: Adobe Illustrator 26.3.1, SVG Export Plug-In . SVG Version: 6.00 Build 0)  -->
<svg version="1.0" id="Layer_1" xmlns="http://www.w3.org/2000/svg" xmlns:xlink="http://www.w3.org/1999/xlink" x="0px" y="0px"
	 viewBox="0 0 50 50" style="enable-background:new 0 0 50 50;" xml:space="preserve">
<style type="text/css">
	.st0{fill:#010101;}
</style>
<g>
	<circle class="st0" cx="36.25" cy="32.7" r="0.7"/>
	<g>
		<path class="st0" d="M40.45,14.2c-0.1-0.38-0.48-0.6-0.86-0.51l-1.41,0.36c-0.38,0.1-0.6,0.48-0.51,0.86
			c0.08,0.32,0.37,0.53,0.68,0.53c0.06,0,0.12-0.01,0.18-0.02l1.41-0.36C40.32,14.96,40.54,14.57,40.45,14.2z"/>
		<path class="st0" d="M46.8,27.07h-2.81c-0.39,0-0.7,0.31-0.7,0.7v9.84c0,0.39-0.31,0.7-0.7,0.7h-1.41v-2.11
			c0-0.78-0.63-1.41-1.41-1.41h-0.72c0.08-0.11,0.17-0.2,0.23-0.32c0.48-0.81,0.61-1.75,0.38-2.66c-0.21-0.8-0.68-1.45-1.29-1.91
			c1.51-0.7,2.36-2.39,1.93-4.06l-0.18-0.68l0.68-0.18c1.64-0.42,3.01-1.45,3.87-2.91c0.86-1.46,1.1-3.16,0.68-4.79l-0.87-3.4
			l2.04-0.52c0.38-0.1,0.6-0.48,0.51-0.86l-0.52-2.04c-1.45-5.63-7.21-9.04-12.84-7.59l-10.89,2.8l-0.52-2.04
			c-0.1-0.38-0.48-0.6-0.86-0.51l-5.45,1.4c-0.18,0.05-0.34,0.16-0.43,0.32C15.42,5,15.4,5.2,15.44,5.38l0.52,2.04L3.03,10.74
			c-0.38,0.1-0.6,0.48-0.51,0.86l0.35,1.36c0.38,1.47,1.49,2.55,2.84,2.97c0.06,1.81,0.37,3.84,0.89,5.87
			c0.74,2.89,1.85,5.52,3.11,7.4c1.48,2.19,2.74,2.77,3.66,2.77c0.2,0,0.38-0.03,0.54-0.07c0.07-0.02,0.15-0.04,0.23-0.07
			c0.04,0,0.08,0,0.12-0.01l7.15-1.84h0h0l7.83-2.01l0.17,0.68c0.41,1.58,1.84,2.64,3.41,2.64c0.08,0,0.16-0.01,0.24-0.02
			c-0.32,0.72-0.41,1.52-0.21,2.3c0.12,0.46,0.33,0.87,0.61,1.23h-0.72c-0.78,0-1.41,0.63-1.41,1.41v2.11
			c0,0.78,0.63,1.41,1.41,1.41h0.7v0.7c0,1.94,1.58,3.52,3.52,3.52h4.92v2.81c0,0.39,0.31,0.7,0.7,0.7h4.22c0.39,0,0.7-0.31,0.7-0.7
			v-3.52V27.78C47.5,27.39,47.19,27.07,46.8,27.07L46.8,27.07z M21.06,4.66l0.35,1.36l-4.09,1.05l-0.35-1.36L21.06,4.66z
			 M14.89,27.39c-0.16,1.78-0.67,2.98-1.33,3.15c-0.66,0.17-1.69-0.64-2.68-2.12c-1.18-1.75-2.21-4.22-2.92-6.96
			c-0.47-1.84-0.75-3.68-0.83-5.33c0.29-0.01,0.58-0.05,0.88-0.13l0.51-0.13c0.04,1.24,0.23,3.01,0.8,5.24
			c0.95,3.69,2.2,5.81,2.87,6.75c0.13,0.19,0.35,0.3,0.57,0.3c0.06,0,0.12-0.01,0.18-0.02c0.28-0.07,0.49-0.31,0.52-0.6
			c0.13-1.14,0.21-3.61-0.74-7.3c-0.48-1.86-1.11-3.55-1.83-4.97l1.39-0.36c0.71,1.47,1.33,3.18,1.8,4.98
			C14.79,22.62,15.08,25.29,14.89,27.39L14.89,27.39z M9.96,16.52c0.45,0.98,0.96,2.33,1.4,4.05c0.44,1.7,0.64,3.12,0.73,4.24
			c-0.47-1.02-0.97-2.36-1.41-4.06C10.24,19.04,10.04,17.62,9.96,16.52z M21.05,28.62l-5.28,1.36c0.24-0.62,0.43-1.42,0.52-2.46
			c0.2-2.25-0.1-5.09-0.84-7.98c-0.46-1.79-1.07-3.5-1.78-4.99l6.1-1.57c0.71,1.47,1.34,3.17,1.8,4.98
			C23.15,24.07,22.33,28.29,21.05,28.62L21.05,28.62z M29.56,26.43C29.56,26.43,29.56,26.43,29.56,26.43l-6.32,1.62
			c0.94-2.41,0.69-6.61-0.3-10.45c-0.46-1.79-1.07-3.49-1.78-4.99l1.15-0.29c1.5-0.39,3.04,0.52,3.42,2.02
			c0.28,1.09,0.97,2.01,1.94,2.58c0.66,0.39,1.39,0.59,2.14,0.59c0.35,0,0.71-0.04,1.06-0.13l4.86-1.25c0.38-0.1,0.6-0.48,0.51-0.86
			c-0.1-0.38-0.48-0.6-0.86-0.51l-4.86,1.25c-0.73,0.19-1.48,0.08-2.13-0.3c-0.65-0.38-1.11-0.99-1.29-1.72
			c-0.58-2.25-2.88-3.61-5.14-3.04l-14.3,3.67c-1.5,0.38-3.04-0.52-3.42-2.02l-0.18-0.68L17,8.61h0l5.45-1.4c0,0,0,0,0,0l11.57-2.97
			c4.88-1.26,9.87,1.7,11.13,6.58l0.35,1.36l-2.04,0.52h0c0,0,0,0,0,0l-1.3,0.33c-0.38,0.1-0.6,0.48-0.51,0.86
			c0.1,0.38,0.48,0.6,0.86,0.51l0.62-0.16l0.87,3.4c0.68,2.63-0.91,5.32-3.54,5.99l-1.36,0.35c0,0,0,0,0,0s0,0,0,0L29.56,26.43z
			 M33.33,29.82c-1.13,0.29-2.28-0.39-2.57-1.52l-0.17-0.68l8.17-2.1l0.18,0.68c0.29,1.13-0.39,2.28-1.52,2.57L33.33,29.82z
			 M38.07,33.77c-0.29,0.49-0.75,0.83-1.29,0.97c-0.54,0.14-1.11,0.06-1.6-0.23c-0.49-0.29-0.83-0.75-0.97-1.29
			c-0.14-0.55-0.06-1.11,0.23-1.6c0.29-0.49,0.75-0.83,1.29-0.97c0.18-0.04,0.35-0.07,0.53-0.07c0.37,0,0.74,0.1,1.07,0.29
			c0.49,0.29,0.83,0.75,0.97,1.29C38.43,32.72,38.35,33.29,38.07,33.77L38.07,33.77z M34.14,38.32h-1.41v-2.11h3.51h0h0.01h3.51
			l0,2.11H34.14z M46.09,46.06h-2.81v-2.11h2.81V46.06z M46.09,42.54h-3.52h-5.62c-1.16,0-2.11-0.95-2.11-2.11v-0.7h4.92h2.81
			c1.16,0,2.11-0.95,2.11-2.11v-9.14h1.41V42.54z"/>
	</g>
</g>
</svg>
